<mxfile host="app.diagrams.net" agent="Mozilla/5.0 (Windows NT 10.0; Win64; x64; rv:140.0) Gecko/20100101 Firefox/140.0" version="28.0.6">
  <diagram name="Page-1" id="keJNuZcUS4o85C-1JB11">
    <mxGraphModel dx="1425" dy="766" grid="1" gridSize="10" guides="1" tooltips="1" connect="1" arrows="1" fold="1" page="1" pageScale="1" pageWidth="850" pageHeight="1100" math="0" shadow="0">
      <root>
        <mxCell id="0" />
        <mxCell id="1" parent="0" />
        <mxCell id="RTKI8pNvzQjoVQ499vID-1" value="" style="shape=cylinder3;whiteSpace=wrap;html=1;boundedLbl=1;backgroundOutline=1;size=15;strokeColor=light-dark(#000000, #ededed);fillColor=#A35A84;" vertex="1" parent="1">
          <mxGeometry x="450" y="520" width="60" height="80" as="geometry" />
        </mxCell>
        <mxCell id="RTKI8pNvzQjoVQ499vID-2" value="MongoDB" style="text;html=1;align=center;verticalAlign=middle;resizable=0;points=[];autosize=1;strokeColor=none;fillColor=none;" vertex="1" parent="1">
          <mxGeometry x="440" y="600" width="80" height="30" as="geometry" />
        </mxCell>
        <mxCell id="RTKI8pNvzQjoVQ499vID-7" style="edgeStyle=orthogonalEdgeStyle;rounded=0;orthogonalLoop=1;jettySize=auto;html=1;exitX=0.9;exitY=0.5;exitDx=0;exitDy=0;exitPerimeter=0;entryX=0;entryY=0.5;entryDx=0;entryDy=0;" edge="1" parent="1" source="RTKI8pNvzQjoVQ499vID-3" target="RTKI8pNvzQjoVQ499vID-4">
          <mxGeometry relative="1" as="geometry" />
        </mxCell>
        <mxCell id="RTKI8pNvzQjoVQ499vID-8" style="edgeStyle=orthogonalEdgeStyle;rounded=0;orthogonalLoop=1;jettySize=auto;html=1;exitX=0.9;exitY=0.5;exitDx=0;exitDy=0;exitPerimeter=0;entryX=0;entryY=0.5;entryDx=0;entryDy=0;" edge="1" parent="1" source="RTKI8pNvzQjoVQ499vID-3" target="RTKI8pNvzQjoVQ499vID-5">
          <mxGeometry relative="1" as="geometry" />
        </mxCell>
        <mxCell id="RTKI8pNvzQjoVQ499vID-12" style="edgeStyle=orthogonalEdgeStyle;rounded=0;orthogonalLoop=1;jettySize=auto;html=1;exitX=0.9;exitY=0.5;exitDx=0;exitDy=0;exitPerimeter=0;entryX=0;entryY=0.5;entryDx=0;entryDy=0;" edge="1" parent="1" source="RTKI8pNvzQjoVQ499vID-3" target="RTKI8pNvzQjoVQ499vID-11">
          <mxGeometry relative="1" as="geometry" />
        </mxCell>
        <mxCell id="RTKI8pNvzQjoVQ499vID-30" style="edgeStyle=orthogonalEdgeStyle;rounded=0;orthogonalLoop=1;jettySize=auto;html=1;exitX=0.9;exitY=0.5;exitDx=0;exitDy=0;exitPerimeter=0;entryX=0;entryY=0.5;entryDx=0;entryDy=0;" edge="1" parent="1" source="RTKI8pNvzQjoVQ499vID-3" target="RTKI8pNvzQjoVQ499vID-29">
          <mxGeometry relative="1" as="geometry" />
        </mxCell>
        <mxCell id="RTKI8pNvzQjoVQ499vID-3" value="&lt;div&gt;&lt;br&gt;&lt;/div&gt;&lt;div&gt;&lt;br&gt;&lt;/div&gt;&lt;div&gt;&lt;br&gt;&lt;/div&gt;&lt;div&gt;&lt;br&gt;&lt;/div&gt;&lt;div&gt;&lt;br&gt;&lt;/div&gt;&lt;div&gt;&lt;br&gt;&lt;/div&gt;&lt;div&gt;User&lt;/div&gt;" style="shape=actor;whiteSpace=wrap;html=1;" vertex="1" parent="1">
          <mxGeometry x="70" y="530" width="50" height="60" as="geometry" />
        </mxCell>
        <mxCell id="RTKI8pNvzQjoVQ499vID-22" style="edgeStyle=orthogonalEdgeStyle;rounded=0;orthogonalLoop=1;jettySize=auto;html=1;exitX=1;exitY=0;exitDx=0;exitDy=0;entryX=0;entryY=1;entryDx=0;entryDy=0;" edge="1" parent="1" source="RTKI8pNvzQjoVQ499vID-4" target="RTKI8pNvzQjoVQ499vID-6">
          <mxGeometry relative="1" as="geometry" />
        </mxCell>
        <mxCell id="RTKI8pNvzQjoVQ499vID-23" value="Blog Sync" style="edgeLabel;html=1;align=center;verticalAlign=middle;resizable=0;points=[];" vertex="1" connectable="0" parent="RTKI8pNvzQjoVQ499vID-22">
          <mxGeometry x="0.0414" y="-2" relative="1" as="geometry">
            <mxPoint x="1" as="offset" />
          </mxGeometry>
        </mxCell>
        <mxCell id="RTKI8pNvzQjoVQ499vID-4" value="TSR Web" style="rounded=1;whiteSpace=wrap;html=1;fillColor=#D16163;" vertex="1" parent="1">
          <mxGeometry x="190" y="530" width="120" height="60" as="geometry" />
        </mxCell>
        <mxCell id="RTKI8pNvzQjoVQ499vID-5" value="TSR Documentation" style="rounded=1;whiteSpace=wrap;html=1;fillColor=#D16163;" vertex="1" parent="1">
          <mxGeometry x="190" y="400" width="120" height="60" as="geometry" />
        </mxCell>
        <mxCell id="RTKI8pNvzQjoVQ499vID-24" style="edgeStyle=orthogonalEdgeStyle;rounded=0;orthogonalLoop=1;jettySize=auto;html=1;exitX=1;exitY=1;exitDx=0;exitDy=0;entryX=1;entryY=0.5;entryDx=0;entryDy=0;" edge="1" parent="1" source="RTKI8pNvzQjoVQ499vID-6" target="RTKI8pNvzQjoVQ499vID-11">
          <mxGeometry relative="1" as="geometry">
            <Array as="points">
              <mxPoint x="540" y="660" />
              <mxPoint x="330" y="660" />
              <mxPoint x="330" y="690" />
            </Array>
          </mxGeometry>
        </mxCell>
        <mxCell id="RTKI8pNvzQjoVQ499vID-26" value="Git blobs with Markdown" style="edgeLabel;html=1;align=center;verticalAlign=middle;resizable=0;points=[];" vertex="1" connectable="0" parent="RTKI8pNvzQjoVQ499vID-24">
          <mxGeometry x="0.2632" y="-4" relative="1" as="geometry">
            <mxPoint as="offset" />
          </mxGeometry>
        </mxCell>
        <mxCell id="RTKI8pNvzQjoVQ499vID-6" value="Data Service" style="rounded=0;whiteSpace=wrap;html=1;fillColor=#A35A84;" vertex="1" parent="1">
          <mxGeometry x="420" y="400" width="120" height="60" as="geometry" />
        </mxCell>
        <mxCell id="RTKI8pNvzQjoVQ499vID-9" value="" style="endArrow=classic;startArrow=classic;html=1;rounded=0;exitX=1;exitY=0.5;exitDx=0;exitDy=0;entryX=0;entryY=0.5;entryDx=0;entryDy=0;entryPerimeter=0;" edge="1" parent="1" source="RTKI8pNvzQjoVQ499vID-4" target="RTKI8pNvzQjoVQ499vID-1">
          <mxGeometry width="50" height="50" relative="1" as="geometry">
            <mxPoint x="600" y="560" as="sourcePoint" />
            <mxPoint x="650" y="510" as="targetPoint" />
          </mxGeometry>
        </mxCell>
        <mxCell id="RTKI8pNvzQjoVQ499vID-28" value="General CRUD" style="edgeLabel;html=1;align=center;verticalAlign=middle;resizable=0;points=[];" vertex="1" connectable="0" parent="RTKI8pNvzQjoVQ499vID-9">
          <mxGeometry x="-0.2488" y="-1" relative="1" as="geometry">
            <mxPoint x="8" y="-1" as="offset" />
          </mxGeometry>
        </mxCell>
        <mxCell id="RTKI8pNvzQjoVQ499vID-10" value="" style="endArrow=classic;startArrow=classic;html=1;rounded=0;exitX=0.5;exitY=0;exitDx=0;exitDy=0;exitPerimeter=0;entryX=0.5;entryY=1;entryDx=0;entryDy=0;" edge="1" parent="1" source="RTKI8pNvzQjoVQ499vID-1" target="RTKI8pNvzQjoVQ499vID-6">
          <mxGeometry width="50" height="50" relative="1" as="geometry">
            <mxPoint x="600" y="560" as="sourcePoint" />
            <mxPoint x="650" y="510" as="targetPoint" />
          </mxGeometry>
        </mxCell>
        <mxCell id="RTKI8pNvzQjoVQ499vID-27" value="&lt;div&gt;Saves times&lt;/div&gt;&lt;div&gt;Retrieves blogs&lt;/div&gt;" style="edgeLabel;html=1;align=center;verticalAlign=middle;resizable=0;points=[];" vertex="1" connectable="0" parent="RTKI8pNvzQjoVQ499vID-10">
          <mxGeometry x="0.0046" y="-1" relative="1" as="geometry">
            <mxPoint as="offset" />
          </mxGeometry>
        </mxCell>
        <mxCell id="RTKI8pNvzQjoVQ499vID-11" value="TSR Blog" style="rounded=1;whiteSpace=wrap;html=1;fillColor=#D16163;" vertex="1" parent="1">
          <mxGeometry x="190" y="660" width="120" height="60" as="geometry" />
        </mxCell>
        <mxCell id="RTKI8pNvzQjoVQ499vID-13" value="" style="dashed=0;outlineConnect=0;html=1;align=center;labelPosition=center;verticalLabelPosition=bottom;verticalAlign=top;shape=mxgraph.weblogos.youtube_2;fillColor=#FF2626;gradientColor=#B5171F" vertex="1" parent="1">
          <mxGeometry x="450" y="260" width="60" height="42.6" as="geometry" />
        </mxCell>
        <mxCell id="RTKI8pNvzQjoVQ499vID-14" value="" style="endArrow=classic;html=1;rounded=0;entryX=0.5;entryY=0;entryDx=0;entryDy=0;" edge="1" parent="1" source="RTKI8pNvzQjoVQ499vID-13" target="RTKI8pNvzQjoVQ499vID-6">
          <mxGeometry width="50" height="50" relative="1" as="geometry">
            <mxPoint x="600" y="500" as="sourcePoint" />
            <mxPoint x="650" y="450" as="targetPoint" />
          </mxGeometry>
        </mxCell>
        <object placeholders="1" c4Name="TSR Backend" c4Type="SystemScopeBoundary" c4Application="Service" label="&lt;font style=&quot;font-size: 16px&quot;&gt;&lt;b&gt;&lt;div style=&quot;text-align: left&quot;&gt;%c4Name%&lt;/div&gt;&lt;/b&gt;&lt;/font&gt;&lt;div style=&quot;text-align: left&quot;&gt;[%c4Application%]&lt;/div&gt;" id="RTKI8pNvzQjoVQ499vID-16">
          <mxCell style="rounded=1;fontSize=11;whiteSpace=wrap;html=1;dashed=1;arcSize=20;fillColor=none;strokeColor=#666666;fontColor=#333333;labelBackgroundColor=none;align=left;verticalAlign=bottom;labelBorderColor=none;spacingTop=0;spacing=10;dashPattern=8 4;metaEdit=1;rotatable=0;perimeter=rectanglePerimeter;noLabel=0;labelPadding=0;allowArrows=0;connectable=0;expand=0;recursiveResize=0;editable=1;pointerEvents=0;absoluteArcSize=1;points=[[0.25,0,0],[0.5,0,0],[0.75,0,0],[1,0.25,0],[1,0.5,0],[1,0.75,0],[0.75,1,0],[0.5,1,0],[0.25,1,0],[0,0.75,0],[0,0.5,0],[0,0.25,0]];" vertex="1" parent="1">
            <mxGeometry x="370" y="370" width="210" height="360" as="geometry" />
          </mxCell>
        </object>
        <object placeholders="1" c4Name="TSR Frontend" c4Type="SystemScopeBoundary" c4Application="Service" label="&lt;font style=&quot;font-size: 16px&quot;&gt;&lt;b&gt;&lt;div style=&quot;text-align: left&quot;&gt;%c4Name%&lt;/div&gt;&lt;/b&gt;&lt;/font&gt;&lt;div style=&quot;text-align: left&quot;&gt;[%c4Application%]&lt;/div&gt;" id="RTKI8pNvzQjoVQ499vID-17">
          <mxCell style="rounded=1;fontSize=11;whiteSpace=wrap;html=1;dashed=1;arcSize=20;fillColor=none;strokeColor=#666666;fontColor=#333333;labelBackgroundColor=none;align=left;verticalAlign=bottom;labelBorderColor=none;spacingTop=0;spacing=10;dashPattern=8 4;metaEdit=1;rotatable=0;perimeter=rectanglePerimeter;noLabel=0;labelPadding=0;allowArrows=0;connectable=0;expand=0;recursiveResize=0;editable=1;pointerEvents=0;absoluteArcSize=1;points=[[0.25,0,0],[0.5,0,0],[0.75,0,0],[1,0.25,0],[1,0.5,0],[1,0.75,0],[0.75,1,0],[0.5,1,0],[0.25,1,0],[0,0.75,0],[0,0.5,0],[0,0.25,0]];" vertex="1" parent="1">
            <mxGeometry x="170" y="370" width="200" height="530" as="geometry" />
          </mxCell>
        </object>
        <object placeholders="1" c4Name="TSR Environment" c4Type="SystemScopeBoundary" c4Application="System" label="&lt;font style=&quot;font-size: 16px&quot;&gt;&lt;b&gt;&lt;div style=&quot;text-align: left&quot;&gt;%c4Name%&lt;/div&gt;&lt;/b&gt;&lt;/font&gt;&lt;div style=&quot;text-align: left&quot;&gt;[%c4Application%]&lt;/div&gt;" id="RTKI8pNvzQjoVQ499vID-18">
          <mxCell style="rounded=1;fontSize=11;whiteSpace=wrap;html=1;dashed=1;arcSize=20;fillColor=none;strokeColor=#666666;fontColor=#333333;labelBackgroundColor=none;align=left;verticalAlign=bottom;labelBorderColor=none;spacingTop=0;spacing=10;dashPattern=8 4;metaEdit=1;rotatable=0;perimeter=rectanglePerimeter;noLabel=0;labelPadding=0;allowArrows=0;connectable=0;expand=0;recursiveResize=0;editable=1;pointerEvents=0;absoluteArcSize=1;points=[[0.25,0,0],[0.5,0,0],[0.75,0,0],[1,0.25,0],[1,0.5,0],[1,0.75,0],[0.75,1,0],[0.5,1,0],[0.25,1,0],[0,0.75,0],[0,0.5,0],[0,0.25,0]];" vertex="1" parent="1">
            <mxGeometry x="160" y="360" width="430" height="600" as="geometry" />
          </mxCell>
        </object>
        <mxCell id="RTKI8pNvzQjoVQ499vID-20" value="" style="shape=image;verticalLabelPosition=bottom;labelBackgroundColor=default;verticalAlign=top;aspect=fixed;imageAspect=0;image=data:image/png,iVBORw0KGgoAAAANSUhEUgAABGIAAADzCAYAAADNRrBqAAAgAElEQVR4nOzdeXxcdb34/9f7nJnJ2qYbbYECLa2UNgGEQsvSQlIWFbWFokXcvS6436soXr1XrV7FXfy5Ifeq+ENFjECbKoJbCZuIiiw2BQqyb10oXdMsM+f9/eNM0kkyyUySs8wk7+fjMY+2yZnP+zPTZGbO+7w/749gjDHGGGOMMcM3ATgupLG3AQ+HNLYxxhhjjDHGGGNM2VksoGHcgE5gZtwP0BhjwuDEPQFjjDHGGGOMySWQAqrjnocxxoTBEjHGGGOMMcYYY4wxEbFEjDHGGGOMMcYYY0xELBFjjDHGGGOMMcYYExFLxBhjjDHGGGOMMcZExBIxxhhjjDHGGGOMMRGxRIwxxhhjjDHGGGNMRCwRY4wxxhgzfC4wDdte1xhjjDHDlIh7AsYYY4wxJS4FnAGcm/3zEOAgyV7QUtgFPA88AKwFbgT2xDNVY4wxxhhjjDHGmPJUBXwM2C6gxd6ADuBLQGWsszcmfIuH87sx3BtwZNwP0BhjjDHGGGNMNM4Bnh3lSeTDwLKYH4cxYbJEjDHGGGOMMcaYUfsokA7oZNIDLon7ARkTEkvEGGOMMcYYY4wZlf8K4WQyA6yI+4EZEwJLxBhjjDHGGGOMGbEVAl5IJ5S7gYa4H6AxAbNEjDHGjIBtX22MMcYYA1OBqwEJY3CBCUBzWOMbY4wxpnxYIsYYY4wxBj4pUBdmAIEFwCvCjGGMMcaY0meJGGOMMcaMdzOAD0QUK6o4xhhjjClRlogxxhhjzHi3QqAyoljnAnMiimWMMcaYEmSJGGOMMcaMd6+OKpD4n73OiSqeMcYYY0qPJWKMMcYYM941RhxvdsTxjDHGGFNCLBFjjDHGmPGsJuwmvXnY0iRjjDFmHLNEjDHGGGPGs5kxxJwdQ0xjjDHGlAhLxBhjjDFmPJsSQ8yDY4hpjDHGmBJhiRhjjDHGjGc7YojZEUNMY4wxxpQIS8QYY4wxZjx7SsGLOOauiOMZY4wxpoRYIsYYY4wx41k38GzEMeOowjHGGGNMibBEjDHGGGPGu39FHO/uiOMZY4wxpoRYIsYYY4wx411zxPH+FHE8Y4wxxpQQS8QYY4wxZrz7ucK+KAIpvAD8JYpYxhhjjClNlogxxhhjzHi3G/hFRLG+BnRFFMsYY4wxxhhjjDGmJB0J7BTQsG7A80B1zI/TmCAtDvl35si4H6AxxoTBKmKMMcYYY+Ax4B1hDa6QAS4C2sOKYYwxxpjyYIkYY4wxxhjfWoXLQxr7UqA1pLGNMcYYY4wxxhhjylIC+LKAF9DSim7gvTE/JmPCYkuTjDHGGGOMMcYE4lXAtlGeRP4LODPmx2FMmCwRY4wxxhhjjDEmMIcAXwW2DPPk8VngA0Ay1tkbEz5LxBhjzAhI3BMwxhhjjClxSeA1+FUyR2RvhwtUKuwAtuDviHQHcCPwd/yTSGPGusUCd4c1uMJc/EbaxhhjjDHGGGOMXdAy455VxBhjzAjYrknGGGOMMSNjVS/GGGOMGTZLxBhjjDHGGGOMMcZExBIxxhhjjDHGGGOMMRGxRIwxxhhjjDHGGGNMRCwRY4wxxhhjjDHGGBMRS8QYY4wxxhhjjDHGRMQSMcYYY4wxxhhjjDERsUSMMcYYY4wxxhhjTEQsEWOMMcYYY4wxxhgTEUvEGGOMMcYYY4wxxkTEEjHGGGOMMcYYY4wxEbFEjDHGGGOMMcYYY0xELBFjjDHGGGOMMcYYExFLxBhjjDHGGGOMMcZExBIxxhhjjDHGGGOMMRGxRIwxxhhjjDHGGGNMRCwRY8asNeA0gxv3PIwx+a2x31FjTHiSgMQ9CTOuJOOegDGmfCTinkBUmhvrZ6YcOVI870h1nJnieTWI1AjUKNQg1AjUoFINqorsE3Svwl5B9nl4ewX2irA3o/Kck9HHOvd1PLb6nsd2xf3YxrPrly84Ium5ZyEcCzpDheko0wWZrqJTBXHWQ7uq7hJkl6KbEbkXT/+ysrXt5rjnb8xYte70hsNwdIkjHANMU2EKymQRpqgyRZApoJMQkfWwT9FdwE6UnYLsVPRxUbk3I+n7nn46vfHDjz7aGfdjMsbEygUOB+b2ux0E1AI12VstUCPZz7gKHUB7zm0f8BzwZPb2VPbPzcCL0T0cUyZSwALg2OztYGAiUJe99fx9okBCoRvYlb3tzPn7NuAB4L7sn3uifRjGmFIz1q4UyLpl9QskyWnAQpQjgbkiMgeoDiOgoi8KPIbymCKPofqAeOm7V9z28ONhxBvvfr708Mk1iQlnOiJnKXqmiMwb0UCqT664pW12sLMrS3L98gWHu+ocjTIP0UMEORSYKSITUSYoWgviiqiiqCIdIrobZTewXUWeUdVn8bwn0pJ5cCObH13TSjruB2ai09xYX5tETnTRJThysqouEZGDAwugpFV4UFTv8+Bm6Ur/euWdD9uHWGPGtrnA0uztNGCehFxxoPAE8Dfg79k/7wF2hxlzDFgscHdYg6v/c/BYWOP3I8Bi4AzgOPzEy/wQfu5U/cd0H3Av8Hv8nzkNOI4xpoSVdSKm+ZRZVRVVE05C5TRwThM4FWFy3PMCUNgq6N2o/CWDd7fTlflrKZ04NJ8yq8pJTpgV5Jhet/Pi6rvadgQ5Zo+WpvnzIfFRgbciUjnqAcdpIqalsX6e58gpDrpYYDFIAwEnKVXpRngI1TtEuF0707euvPPh54KMMVaE8XsoTvf+C1offSbIMfNprq9PVUyX14C+DeRVIhGWZKt2IHIzaHOHx69Xt7btjSy2Getq8a94h+VZ/KoMM9BM4HygCVgq4f4/FEUhDdwB/CZ7ezjeGZWkck/EJPATL6uAlQKHhhhrUOpXaf0aWA/8CbAqUGPGuLJLxNyw+Oipbq27CpXVwBmRfvgfhezJaavg/Trjeb8+v/WhJ+Kcz9rGhkbX4ZYgx/RUP3veLW2fD3LMdWcsXCaOfEzgtYgE9/M6ThIxLafNn6DJ5LkierbAWYgc0fO9Ts9jR3eGmalEoE9tPgr/RPXmDJkbH7jlodvXgBdqwDJxQ9PRZyQk0RrwsHet2LDx1IDH7LV2Wf1iN8HbEN4AMiWsOEVT7VD4LfDNlbe03Rn3dEzZWy3wy7AGVzgH+ENY45ehqcAFwIXAGVLiPaMUHgXWAlcAVvnsK9dEzNnAm4HXCqVxEbeHwnbgx8APsJ8zY8assugR03xK/ZTKCjkf0dUgy4FEuaWQsgmjs8E523Wcb7csb/inoOu9bq457/a2TdFPKL0n6P9+IYBKlaz1TQvrFblSRE4LaszxouW0+RO0wn2dqHOBiJ4lUAFC2lO2dnbzQlc32zrT7M74uZCTJlYxu7oi1DkJHIPIMQkSHz9+ecOWFlib0fS1q2556DbGcSmum3F2B/8qrJOCHrEZ3IqmhW8TnI8jHB30+KMiUin+lcxVLU31vxOPT6+4te1vcU/LGDMoF3gd8A7gTCmTz6IAAvOAjytcAqwDvgXcHu+szDA4+O8XnxQ4Ie7JDEZgGnCpwseAm/F/ziyBa8wYU9JvfuuX1y9X+IiovBIhUYYFPIMSOAbkGCfJf7U01d+N8KPO/bt+tvquZ/ZHET+Tkd1uwP/7go46EZM94bsUkc8KEm52YIxZ29jQ6Ii+Q0ReJ1CNQEdGea6zi2c6utnWlc5bhrJxbweHVaVwQ66K6SEwA3hvQhLvXb+84TFV/UlnR/ePV9+1+dlIJlBChMzOoDevUyXQRMz6poUrVeQyQRYGOW4YROQVuLyipam+hXT6Mytvf/iBuOdkjOlVA/wb8FGB2THPZVTkwAn9KoV/AJcDzUBXrBMzg0kCbwE+IXBU3JMpVvbn7FzgXPWXLP0HViFjzJhRcomYKxeRnDlh4WocuQTkeIGxlH/JS0SWAEsqK+suW99U9/0nnu68LOwdQpKdHbtJ1AQ6psKoEjF+FYzzExFODGpOY91VjbMrp1L7JoT/QGgAIa3Kcx3dPLG/i61d6YLlJvs95dF9ncyvDaygaTiOFJHPV1amPtOyvP66TCbz7VW3PnRXHBOJwx5v/84Jga+ulEASMTc01i91ha8gcmq5vQSLyEoSiRUty+t/2dnd+eHVtz+6Le45GTOOzQA+CLxfIP7ljAHLVlb8VOGrwPfxl5Nsj3dWJseFwNcFAu3HFjWBFdmljV8FvgxEcuHWGBOeYC/FjkLzoiPr1i1v+NjMiQ2PieP8TJDj455T5ESmqfDfh81KV4UdqtPpDnwXgNEsTVrXtPDDKvIPS8IU5+pjZ9SsW17/n1Ol9ikcfojQsCed4b7d7fxm6y7u3tXOliKSMD02t3eS0RhXCAkJQd6QcBN/Xt/U0LquccFZ8U0mOsk7ntqNBvvEi1DVXF+fGun9bzh17vSW5Q03JBy5XURC6zUTOhER5A0VyYr7WpYvOD3u6RgzDlUCnwUeF/jvsZiEySVwsMD/AE8DXwSsqjdeBwNrBa4t9yRMD4FKgc8Am4Dz4p6PMWZ0Yk/ENIO7rrH+A5V1VY858DWRsfFiOWLK385vfWJn2GFW3/XMfjTYLYZVdEQJpHXL67/siPP/CTLik8fxovmUWVUtTQ0fnzR12hMO8iWEg7Z1pbl9x15u3r6HR9q76B7BaX2Hpzyxv0QqqoUzHMf9w/qm+ttbGueP6cTcasggBL6bWqKuY0RVMS1nLDg7UVF5v/g7l4wJghwC7ob1TQ2fYszXVxpTMlYBDwqsEQj94lIpyZ4sfwp/W+KT457POPV2oE3GaLJCYLb4TaNvAl4W93yMMSMTayKm5Yz6porlDfc6jny3JHbfKAXCb6KLpYFWxQy3IqYZ3Jam+h86yCeCnMdYtX55/UUVlZMeFuGriEzb0tnNhhf30LpjLy90jT6n9mh7ie2UKLJUJPHXlqb6n7ScNv+QuKcTouATr05yWImYKxeRbGmq/4o4zu8QmRn4fGIm4CJ8saWp/qbmZfMOins+xoxhC4E/CFxf7n1gRktgAXAn8A3GWTIqRgcDNwlcVWo7IYVB4JXARsA+RxtThmLpEbO28ejZrrhfR+SCOOKXtLTeGFUoVXaLBFcqrFp8s95vz5tXUXF45S/G0pX3sKxtrH+5I3wP5FQR2NGd5p97OtgaQPIl1+60x0vdaSYnS6h1lIgIvI2K5OvWNTZ86SX2fuMdrU90xD2tICmyU+DwIMcUcYtOxKxd3jDXRX8BclKQcyhFIvKKimTFfesbF1ywovXBv8Q9H2PGEAE+DnyxnHZBClu22epHFVYA7wJujXlKY9lC/CRMoO+npU4gBXxZYQ7wASAT85SMMUWKuiJG1jXVf8QV90FLwgyk6HMrb9t0b2QBRQKuiCmuWe+Vi0jOPqziRkvCDO2qxtmVLU0Nl7kifxORUzsyHn/b1c6fXtwbeBKmR8ksTxqoxnH4whSpvW9t09GL4p5MsHRX4EMmi2vY29I4/0QHvXs8JGF6CHIIjvO7ltMXjr8+ZMaEYzr+CfBXLAmTn8A8gVuA7wG1cc9nDGoE7hxvSZhcAhfjL1eqjnsuxpjiRJaIaV4276D1TQ2/cUS+iYy8qetYJvDbSAOqBtqbQotcmjSzruHbiJwZZOyxZl3TwiVTnJr7Rfikool/tXdy8/bdoSdKXugMJ8ETFBHmOyTuWtfY8F/N4MY9n0Ao7UEP6apXMBGz7oyFy8RJ/EmQqUHHL30ykYRz83WnL7C19caMznLgPoFXxD2RMiAC7wf+iV+9YYLxJuB3AoHsGFjOBF4LbACmxT0XY0xhkSRi1i+vX16RqLgf4dwo4pUt1ej6wwCIBHwCWHhp0vqm+vcIvDfYuGPHGnDWNzV8ysG5Q5Cj9qYz3LpjL//YvX9ETXiHa2/Goz3jhR9oFERIOg5fqGiqv+36pUcdGfd8Ri3w30MotIX12uUN5ziuczPIxOBjlweB6SnX+UPzKUcdGvdcjClDAqzB7wdzcMxzKSvZ3jm3AeOmEjFElwr8NLs8xwACS4A/A+X/+ciYMS7UEtI1jSROcOrXKHxSRGLfoam0aefOF1/8Y5QRBe0IchORQs161y1vOFXR79i2Jfk1N9bPrBR+gdAI8Hh7J/fu2U8mggRMSoTJSZfJyQNFJuImqD54FrWHHUHltBlUTJ5KauIk3MpKnFQFeB5euptMRwddu16ic+cO2p97mr3PPMn+rc9DyNthi8ipiWTyvpamBRetvOXByHorBU5pD3ovHx3iyuDaxgXnOegvsV3KQOSIiqrk75tPqV+2+q62HXFPx5gykQB+KPC2uCdSrgSmql+5sBL/TzN87xT4StyTKEUCL1O4C3g18Pe452OMyS+0RMzVx86omeRM+xXIq+zEuwjKrW99YMu+SEOq7JcA/3N0iIqYltPmHyKq1yN28pfPDWccfYrrcB3IId2ecs/udp7u6A4tXlKEGRUJpqcSHJRKMDHhUn3wLKYdv4TJC45l0vx6amfPxXH7vUQ881e4+3vg1UFlHUyog+mToGI6VL4MZl4MtdNJ729n92Ob2bV5Ezva7mPHP++hY/vWwB+HiExQnPXrG+svWdHa9q3AA0RC24PfVTl/Rcy6MxYuE3GaBZIBByxbgiysqNTfXn3sjDOjfg02pgxVAb/MLoEwoyBQq/6S9DcA6+KeT5k5B/hB3JMoZQLTFVqB1+D/aYwpMaEkYm5YfPRUt8a9EWRJGOOPRR7R7ZZ0QNAVMUM0600lfjoWt8UNwvqm+veo8B1BUnvSGe58aR97QlgeVOkIh1UmObQyxdSki+O6TD12EQcvPYsZp5xB9cz8KzS0t7JF0Uwa5/6rB42hTZ+Dxk+TqKpmSv3LmVL/cuac/0YA9jz5GC/c8SdeuPNP7Hy4LbDHJYiDw+Utyxvm3+tt/NCaVkq70U1/EnyPGNABiZh1pzccJi7XWRJmIBFZUjd12v/BljfGPRdjStgk4NcCS+OeyFghUKFwHfBO4P+Pez5l4ljgV9YYujCBGoVfAYuAp+KejzGmr8BfxJqX1h+eSMrvEI4OeuyxLNOdjrY/DCDI/iDHG6xZ7/qmhasRWR5krDFCWprqv4zIpQI839HN3bv2BdoLxgEOrUxyZFWKg1IJRITaI+Zy+CvPY9bZr6Vict8+rX7SRVH1bwOWF9UWyKU9fy9eJpsHEUFEEAREmHDEkUw44khe9qZ3s3/bFl64cwNP3Xgdux/bHMhjFXjv8dIwr7lRz1/d2rY3kEGjoBL40iT6LU1qPmVWlZNgHf7uJiYPEbmopbH+6pWtbTfHPRdjStB0/H4wx8Y9kQJUYS+wC/CAicBEiX6X0KKJ33j+KoXJQJlWdkbmUOBG8f9fTREEpmWTfcuAzrjnY4w5INBEzA2NCxoSjtyM/0JpiqU8dMEdmx+LPKzofgm0Imbg0qQrFx1SrThft+VpfV25iOTMiQ1XifAmgH+1d3Lv7v0ElYOpdIR51RUcWZ2iwnFAhJmnLefIC97M1GNP7HOsn3Tx8ide+tHamSiCDDbTF+7PHdgfO+fbIg7iOFQdNIM5513EnPMuYsfGe3mi5Vqeu+33aHp0xSwinFUh/PbqY2e8qmyWmUjwS5NE+iZiKivrfgicEGiQsUjk+82nzKpffdczgSapjSlzNcBvSykJo/AYcH/ObSOwHdiNn4DJ5ah/4j4ZOBq/OmARsEjgsMgmPTQRuFz95/qLcU+mRLnADQKz4pqAwn6gHagVqIhrHsMlcJLCd4D3xD0XY8wBgSVibmhc0JAQ9zb8N7rSpKqKPIvoI6KyWdV7BNjioXsF9jqw1/N0n+AkMq430cWtQ3WiInUiOlFF6gSpQ3U6cKzAXGT0XVZUiKXRqHh0BHyNaMCb0sF1kz9F6XzQKQlXNc6unCI1a0V4JcA/9+znoX3BXKSocoSFtZUcUZXCFQHHYdaZr+aot7yXmkMP7z2up+JFPQ/yJFV6KmP8ZAo5x4hfFbP3+fwT2Pk4XvsOqJjoV8Rkq2EARMRP+GSXXfUkZaY0HM+UhuOpf/+l/Kv5Jzy+7hd4XSN/PgRZNmnqQTdeucg99+J7ngth2U/AQmjWm9sjpmV5w/uAqJfc7FNlK7BF0N2KTEH0EJAZUsLbjoswp7Ki7jPwzCfjnosxJSIBNIufuIiN+smV24EbgLXA08O4uwfszN4eB27KGfdw4ELgIoHjA5vwCAn8j/rbW6+Pey4l6BKBxWEHUXgRv6dKK/AksDV724ZfbdVzXAo/wXcQUA80AMcAL5cS3LFI4N0KfwF+HPdcjDG+QBIx605vOEyEm5DSSsKosl/QP3sqt4ho6wu7X7o3yBOz5sb62krNNHjIcSJyHHAccIyITBjWQJk4+sOAJ+wPNA8jIt+eN6/iw48+2gmwdnnDXNCPBRmi3GWTMOtE5BWqyr179vOv9q5Rj5sUYWFtBXOrK/wEDDBz6ZksePdHqJ11RO9xPckX1b4XDHOXJBXc7WjioYMmYgSQLQ+ghy/1kzhobw5H8ZMvPUuWDiRlBHEcUpOmsPDiS5iz6s1svvoKnr55HeplRvaECGfMrJv8m+ZTnFeXfHWD0hV8IsbvEdPcWD8T+FLQo/eJpPq8wB8zIn8A/rxn+7YXBqtGaga34rT5M0hyiIh7qKocJg7nonI2UiLr/UU+dkPjgp+van1wY9xTMaYEXCFwblzB1U+4fBP4Of6JcNCeAr4GfE1hPvBW4IMxLn0R/F4xi/CrfozvaOBzYQys0AX8EX/3qg34FVbFNOrrwq/C2g48iL/8p2fMlwEr8JtaLy2hCxDfw39898Q9EWNMAImYtY2zJ4noTSISW6lgLlV2Cvwyo1z79DMdd/UkBcKQ7UPxl+wNyG7ZLfWno1ygwnmCHDLkfGHXC3vb7ghrjkMJukcMwMw6r5LsGlRH9RuIlE3pZtiuapxdOcWpXS9wtqpyz+79PL5/9EmYOVUpjplQ6S9BAiYceRTHfOiTfZYgqSqelxmQZOlZljRY8kUcp7dyRcTxC8DqDofnBt8NUV6430/E5OHHyuZmRLJjgnoZP1HjOFROm85xl6xh7uq3s/E7l7HtnruG9Xz0zgNpqqysW7em8ZlXl3IDX0W7g1wiCKDqL02qFL4B1AU6OKDoJpQfZdT7/XASFqshw50PPwc8x4EtNb/bvGzeQSm3YrUIbxSRU4Oe77AICRfnSvyGpBFsHm9MyfqMwLviCKzwEP7WxD8HwttCsK+Hgf8CvqFwCfBhgdqIYvcSmJTt6XEq0BF1/BLkAj8eckOIEchWvvwA+C7wQpBjA48A38jeZii8D3ifxNynTaBS4Xr8RN+Lcc7FGDPKRMy3582rcKSyRYT6oCY0Eop6Ar9D9Sc7tH39O1qfiO2Nyz/ha+vJqn/whjOOPtl1ExegeoGIzM5zl99ffE9kHzL6CuFKfEVCK4FdLY3188S/GhAuJa3oRhGeR+UFD+95UXleRLdmkIyj1CrUiuhEkLkislCVBVH3rFkDzhSn9hqBswH+EUASptZ1OKmummkp/9fYSVUw/63v48jVb+vddtqvgMnk7HxEb9VL/6oYn+C4bt/ES391Q+dcZcsDxT0AVVQzfSpl8DwUD3EcamYdwclf/V+euukG2q74Oul9e4obt89k5Jzjqf8WtH1w+HeOhkgYv/8yaf3y+uUggS5JUtU71eMr593a9hsCTFKsvv3RbfhX6r63/vT5c3CTF6noRwWZWui+YRCRU9c1LnzPea2browjvjEl4PUSUgXCUNRfPvRx4EfElwjdgZ+QuVzh8+KfREdK4PhsT493Rx27BP2HwClBDaawGbgcv/IoiorZLcAa4MsKbwI+KTA3grh5CRyhcA3wKoqr/DHGhGTEiZg14BxxeMXPBE4PcD7DoqiH8stu7f7861o3PxTXPIagq2596C7grjVw6QlNC18H8in8ZUw+L55lSQAqwV+JT9dU+lcshPcF0T8nH1V2InqzwPqM7rvp/NYndg53jObG+kivcp3Q1PB94HyAB/bs57FRJmHmVac4dkJV7zKkSfPrOf6TX6b2sNlA/iVIQyVgHMdF3ASOU8RitYkBJWJy9FTK0C8h4zguh79qFdNPWsr9l3+OrX+5bdhji8gHWhoXblzZuukHw75zBDxxuoOuWRahSpUrg/oNVNWbgS+svKXtzmBGHNyK2x5+HLisubH+xxWO/p8grwk7Zj7iyBebT5l1dckvbTMmeIcBkSchs1UgHyL46oSR2g68X2EdfkVGpBtRCLxL4Q7G+bbWAu8PYpxsBcy/4ych4kjydeAnGH+mfrLxUwJVMcwDgXPUT/LZxQZjYjTij+nrltf/p4OE2ntgUP7l/WYvzefPu71tUyxzGIX1jQ2vweFTii7JdHQcvOrP/9oayzya6t+DSKAvwl1e1wKvs/3JyspJzwbZM0hRD+QaQa/6h9d2WykvNemvZXn9fwvyPwAP7e3gn3tHXrCVFDixrppZlaner81747uY//YPHKiC8Tx/GVLW4AkYwXETfgXMcM7YH/gFXDd4oYW6KdIf3wZusvgx+88sp5eMiCCOP8dHr/0xD/7wW4X72PSfk9LtKeec37qxdcSTCsm6xoYLHYdr455HPqrsRL0PrWzd9LO45rC+seGdKnr5sHtvBUDh/Ss3bLwi6rgmVqsFfhnW4ArnAH8Ia/wAOMCfBBqjCqiwB3gH/pKJUjUZv1/OhVEGze7SczIw/Csc0VkscHfckxhKdjnO+/Gb7paKI4DvCbw6juAKzwPz8HeBMsbEYES9Wtcuq18sKp8PejLF0UdUvMYVt7S9oRyTMAArWjf+ZsWGjad2djEnriQMgCca+JIIl2RlReXEi4Jt3Kw3ZZQTVm7Y+JYVG9o2lFMSZm3jgvNE+TzA0/u7RpWEmeA6nDV1Qm8SJlk7kcVf/C4L3vnvOG7C7wOTSfdLwnjZpUl9kzBuIkkiVYGbSAy/cGni0BcFJdOFt20Tnuf17s40XLnz7nlc6nnMe8O/seTLPyBZO7w+iiIkHUeva+JsoRAAACAASURBVF5af3jho6MVztKk0VPV33V2dDXEmYQBWNG68UeeZo5FuTXq2IJ+ZM0I3yeNKVOXRpyEeRy/F0opJ2EAXgLeoBEv18pWTFxHfM2Dy5rCVoXVwOsorSQM+DsyvUbhEwoj3Jlg5AQOBj4SdVxjzAHD/oDZctr8CU6Ca0QY+eXuEVDIqOrXOvbvOm7lhgeHvz6hBK2+o+2pOOMrTuAJDRevUsT5QDCj6V8zHk0rNrSdu+qWtvuDGTM665sW1jvi/BQRebErzV93jfyiw/RUgjOnTqA24S9iqT1sDsuuuJYZJ58BcCBZkU16+P/OZLenPsBxEyRSlTjuCBIwPQosTQLghfvJqEfay/i3TJqMl+lNzhSrp7qnp9mwl8lw0KJTWHbFtdQePmdY0xZkakWSqxhFJWAY1As+IToainap571v5S1tr1x91+Zn454PwPmtDz3xj1s2Lkf1mmgjy8tOaFr42mhjGhObRUBkF9nU3456MVBOO5StUbg4yhNn8XfgWRNVvLFC4ff420r/Ku65FPBV4Cz1e8lE7VJgWgxxjTGM5EpfKvFdEYm2yZSyTbzM0pW3tF1q6/WD44RxAijOW4ATRjOEop6qfmLFhrYlpbiUpBg/WzJvoiItIlK7P+Nx5859I+6IdlhlkmWTa0g6fv5g6nEnctp3fkrNIYcB4HkeXuZATq2nmiR3CbSIk62ASY6+dc+EITcC8+NteaC3GkZVUcBTPZCcyaTJFJuU6W047Pe88bwM1QfP4tTLf8LEI48a1tRFZHlLY8OHh3WnkJVYRUy7KitKsZ/OGvA6tvIOVSJOxEsg/QmMKXEJ4KdCNBfZFO7Eb16/PYp4Aftf4IKIqxjej7+UxRRB/eWFr6F8fr5agVPU31EwMtlt2v8rypjGmAOGlYhZv7z+IhF5a1iTyU+fSnenl65offAvhY81w6GEsMRHRnvSortRb8XKW9q+GsyE4jGxuuIKEZnrqXLXzn10eiPrCzenKsWSumqcbPJk5tIzOfkr/0tqQl1O1Yv/WbCnaiRfFYybTPl9V4KQrITqg4Y8xNlyv58gyt4ymUyfpUp+YuZAUqaYSpne6phs4ilVN5lTvvljJs0f5qZtwpeuazzq6OHdKTyKVxJL7RR2pT19xXm3tP0u7rkMZnVbW1dnh56vysNRxVSRM284dW6sW44aE4H3CSyIIpDCY8B5QGcU8ULSgl9NEAmBCuB/oopXztTfkvqNRLfteVAeB16Z3TksSu8HZkcc0xjDMBIxNyw+eioq3wtzMgPpg91e52mr7nhoc7Rxx4dSOQHsoaqPptNy8spbHoxtJ6kgtDTWvw3xtw3+554OXuwe2UWz2VUpFk2s6q1gOfSs13DiZ76Bk0weSLpke7/0bFPdv4mtmwyoCqa/AsuT3K0DK839OedJzEBvpUym31bbeQbJ7gblL8VK1k7k5K/9kEkLji166iJUJSX10zWNI981LkiO48S/faSyjbTXtKq17Y64p1LI6rvadqS7u85F2RZFPAHXSVW+PopYxsRkMvDZKAJlTzLLqVJhKN9U+EWE8d4EHFfwqHFM4TL87cbjf18dmX/i942JrPpfIIUl+YyJRdGJGLfWXRNsA9ZC9K/pvZllF7Q++kx0MccXp5SWRKjesbd7z+JVt218MO6pjMb1S486EuG7Pf8+oirFxMTwK1EOq0xyYm4SZvm5HP+JLyKu21sJQ04/GPX6JXtE/F4wxWxHPRJ1Bbaw7tyF7Bq6BVJPYiY3KeOpZhMyQ1XI9CxV8pMxieoaFn/xu1Rnl2oVQ4QTj6f+vUXfIUSaiWUbzQPxlf0Z1XNW3rbp3jjnMRwX3LH5MTSzQjWa1zARLooijjEx+bTA1LCDZKtwXweU9ft8P+9SiKSHnfif2b8cRaxypPDfjI1lNncCrw+lan1wb8SSfMZErqiztHXL6heKSmQnLar8scPjzFV/fejFqGKOR2E06x0ZfaSjg5VvuuOpl+KeyWglksn/E5Hann9PSrqcNXUCc6tTQ92tj4NSCRbXVfcmYWac2sTL//OLiOP0Jh96+r+o5w1Iwog4JJIVwVfB5CqiYa+z9Z9FD5dbLeMnZPwKGc8b/KJWbjImNXESSy77PskJw9hYwmHNz5ceHmFyOb+Mk4n1yp0nXHx+a9t9cc5hJPzlqvq/UcQSOPX6xnlFdKk2puy8DPhgRLHeD/wpolhRaQfOV9gRRTCBVwJNUcQqJ+o35P1i3PMI0I3AOyGaCzXZJN+XoohljDmgqESMk+ByJJoyfkWv69yqr17d2rY3injjmaIlkIjRHV1p79Wr72qL5ENMmNY3NrxTRJb3/7orwgkTq/1lRgXGqHUdTp10oCfM5IXHsejTX++zPXUPf4lO33N4ESfbDybkjYGK3Dmpu7ubdDpNOp0mk8kU3M66f0Imox7pzODLlXKTMTWzjuCkz38bSRT3UiXI1NrUhM8UdXCIXJHYKmIU/e75Gzb+NK74o9be/j/AvtDjiIjrpM4OPY4x0ftqFA16Fb4O/F/YcWLyOHCRRrcc5isRxSkL6ldY/Vvc8wjB1QofiypYNsk3O6p4xpgiEjEtTQtejcg5UUxGlT/eu6HtwtVtbV1RxBvv4jwBBFClO62ZVa+77cFH4pxHEJob62eq8PWhjjmyuoIzptSSGCRHkhBYOrmGVHY5UfXBszjpC9/BTaUOLEfKyp+EkWiSMAATDy14SHJ7G0Bv8sXzvN6kTG5iJp/chEyh6pjcZMyUY05g4XsuKf5xqHzghqVHD2/rpYBlvHh6xKjqnS/savtoHLGDsvLux7eop5dHEUtwBiRZjSlz9eI3zQ2VwgbgE2HHidnviWhZjMBJgPWtAhT2AKuAsXrx9psKUTXQF+ANEcUyxlAgEdMMLrjfiGYquqOzo+vta8q3wVbZib03hXgXr7rloVvjnENQUg5fEmFSoeMOSiVYNjl/MubEumomJFwA3MoqFn/hu1TUTe5tzNtnOZL2/zUR3LCXI+UqoiImsa1t0O/1T8wMtmtSz3E91TGDNfPtTcZ4GWaf/0amL15a1MMQIZlIJWK9uuhKDL+Hqh1p8d508T0l1CdqhPbs7/yaoqEvYxVbDmDGnn8PO0C2SuQjjI/Pdl9WiGqHz89FFKfU/RvwUNyTCNmHFaK6QP3GiOIYYyiQiEk21Z8nwvwoJqLoe1fftfnZKGIZnxfrkgjWnrdh01VxxQ/S2qajFznK24o9floqwdLJtX1++eZVpzis8kAfmeMuWcOE2XMBP/HS25g3bxIGElFVwvQo0KwXQHY9idtdeNWIqpLJZIaskjlQHaNDJ2M8D1BefukXSE2aUtRDQXXlDac3RLJtaz4ZL/oeMap8/YINDz4ZddwwvPnuR3ejXBZBqEPjrp4yJkBTgTdHEOdq4IEI4pSKqKpiFuBXxoxb6i91uy7ueURgM/DNKAIJHAM0RBHLGFMgEeNAJGXrqnr1yg2bfhVFLHOAE1OTUFX2p8l8JI7YYXDEvXy4WZCDUglOmFgFwATX4dgJVb3fO+K1qzl0+bkA2WqQnC2q8yRh3EQSCWt3pMFMKLw0CaBq12Y8L9P7OIbcmhp6q2TyJWR6lytld1bKX0HjoZ5HatIUjrukyAuGIuIk9NLiDg5eIuKEqKLP7dqxfUztvLFD930fdHfYcdyUe0bYMYyJyMUCVYUPG7nsFrz/HWaMErRBo2tI/KaI4pQc9ZcifTrueUToCwpR7SJruwQaE5FBz97WNS1cIiKnhj0BVX1iT3vnh8KOYwbSTFwVMfqlsXI1vqWpfoUgy0Zy3znVFcyrTrF4UjVuNo9TM+sIFr7X782Wuy113i2qAXFcHDeSPtp9VdRCZcGVWKS2b8J1E6hmK1q8DJlMOic5k/9HcLCETO5SpbzJGFXU8/AyaWaccgbTTz69qIcjKm9qPuWo4rJLAYu6Mk2VT771gS3hN7iN0Dtan+hA+U3YcUR5edgxjIlAEvhABHG+CYzHSueokk8XAm5EsUrN14EtcU8iQvuAYTTAGxVLxBgTkUETMYITejWMol5Gecub73409CuZZqCYliY9tkP3fS2GuKEQkc+O5v7HT6xmSjKbSHEcjv/Py0hUVvXZIWmwJAwIbiL0zS4GV9TOSfdRU1M74Ms91T1+YmbwpIzneXmrY4ZKxvRU3qjn0fCB/8RJFn6OREhWVKViqdLSdIS/h6r3n3dLW/nukjQET1kbdgxFrGTbjAWvFzgkzAAKWxm/u/v8RWF92EEEZgJnhh2n1Ci8AENvjjBGNWcbX4dKYA5wSthxjDGDJGKuX77gCIQLwg6uql9e1dp2R9hxTH6xNAn1+Pd3tD7REXncELQ01a8ATghqvDnnv5HJC44Fsn1hsvItR4LskqQo+8L0V0wi5vn7SKUqSQyZMDqQlPHyJla0t6FvriGTMdmxqg+exdzVby/q4Qj67isXHVJd1MFlylO9AuJt0h2W3Tu234RqqK8tImqJGDMWRNEb5nP4O9qMV58mmtfa8bg8aQ1+hch49CGFdARxrCrGmAjkTcQk1Hm/hFzuqKpPbNm9aU2YMczQom4Sqqr3rWjdGPrygaiMthomV+W06Rz99g8CPRUdXu/fyVMpIo6D48ZckVxMImbbJkh3UV1dW7A/DPQsPcqfkMlkMgOqY3p3VMpXUZMda95F7yI1sfAyKpCJMydMOr+IA8tV+979Xb+IexJheesDW/apv4VsiGRKy2nzQ60kMCZkdYRcRaF+c9H/DTNGGXhA4ZcRxDmfkHv9lBKFh4EfxT2PGG0Cfh1BnNWM32VvxkQmXyJGRMLfR17h22Nh69RyFnmTUNUfRBkvTDc0HX0GAVbDLLz4EhLVNdklSbl9YQavhondxCJaqnjdsG0TFRWVKEJnVzdd3WnS6Uz+5EnWgYSMNyDxki8Z46l/6zuG37jXrahkzgVvKeohichbizqwDKnqr8b6MlCJYnlSKnFM2DGMCdFrBVKFDxuVK4jmqn2p+ywhV8UITABWhBmjxHwf+9kKfcdRgRlAU9hxjBnvBiRi1jUtXAxyeJhBVXXP3vbO8ZzRLglR9ohR1T1dyM+jihc2VxL/HtRYdUfVc0jTq4C+y5AGW5LkOC4iEe+SlE8RW1gDdD11N1u3baG728+79lSwpNMZurrTdHenyWTyJ2V6liz1b9ibTqcHfC3j5U/GeF6GOeddRCJPr5oB8YSz4mraG7aM8sO45xC2dHvm10WVXo2G6uxQxzcmXKEuO1fwiKYSpBxsVvhzBHHGxfIkhQz2swVwk0bTqPi0CGIYM64NOJsTcV4felThR2P9ymw5iLRJqMjPV7e27Y0sXojWNh49mwCvQC18z0cQkT4VMKqad0kSgFMK1TBQ3NIkoPPJu+nq6hz0+54q6Uymt1Imf9PezIAeMbnJGL/5b54lStmvJ6prmHNe4SXPgjgVlcmx+KH22fHQj2vVXx96EXgqzBjiOAeHOb4xIaoBXhFyjFuB50OOUU5+FUGMVwJTIogTtz8xvnZKGkwaiOLCZmBV38aY/AYmYlRfF2ZART1Jp78dZgxTejxPr4x7DkFxJPGeoHooTTlmEdOOXwLQJwmTf5cksscN/r1IFZmISb3YVvSQGc/zq2T6VbxA/uqY3GVKucmYgffzmH3eGxGniP+2CJZmRk3R2+OeQ3Sk+B+4kVC1HjGmXJ0r4fcTuSbk8cvNdYS/PCnJ+NjlZsxUVQcg9OVJwPERxDBmXOuTiFl/Rv1JiBwRakRl3YrbHn481BimpKjy9/Nb2+6Lex5BWOP/zhTXcKQIL3vTu4ED2zln/zHkfdLdXXR27g99BUZBRSZiktsf9Pu45Nx6kiaDPQbP07wVMj29Y3KTL7nJmLz9YrLPbcXkKUxfsrTgfEV5eXNj/cyiHlyZUGX8JGLU2xTq+IJVxJhy9ZowB1foAq4PM0YZejai5UknRhAjNgr7IfweYGVko8I9YQYQOAyYFmYMY8a7PokYdQh9WVJGuTzsGKbEqN4c9xSCclzTwiYRistAFDBx7nymn+Qvwe1TDTNIb5gennpkMmk6OtoHLNeJVNUkSBbe7dnp3oO7++k+X8tNxOQmZvrLeB7d3fm2ru6bjPH6bPc9cIlST+Pew15xXuHHJSIV4ZfvR0rS6TG/LKmH5xBqIkYQq4gx5erUkMf/HfBSyDHKUXMEMRZFECNO6xnf26Hn85MIYlhVjDEh6pOIEWR5mMFU+ft46FNg+vJEW+OeQ1AcgttVZ855bwSGVw2jqni91R8Z9u3bQzod3+Zj3oTi+tqmXhz63Lh/UqbP94DudIZ0pu+SrNxkTE+lTZ+x+vWK8TyP6aecQapucuEJO7yy8EHlQZWd997+8Ma45xEV7Q53aZKiY6payowb0wTmhRzjFyGPX66uJ+TlSYz9RMyNcU+gBF2TrUILk/WJMSZEvYmYq4+dUQMcF2Yw1bHTJ8QUR9Gu7o7dUZTlhu7KRSRFKKKkorBETS2HLO+7U1Ix1TAZ78DW1n7iQdm/f1/kS5XSmTRbt22hq/Kgoo4vlIjJNVhCJpPxBvSOyT0u3xKl/o17xXE5+PSzC85B4Jw1eXpolSdtW+PvZDIuOF76wXAjSE244xsTipPDHFxhH37Vghko9OVJAocAYzlJ/I+4J1CCdgB/DzmGVcQYE6LeE426ydMWIyTCDJZJd28Ic3xTekT56+q7ntkf9zyCMLN2QSPIxCDGmnXmq0lUVvXZKanQBTNPvd4j+icpuro6aW/fG8lSpfb2fbzw/HN0dOwnXVPc576KHQ+ScJO4bqLo7bfzJWQ8T+nu0zemb/Kq/xIlT/v2l1HPY8bJpxcxY5lyXNPRY+IDiAg74p5DlFbe+fAe4Nmwxhe0MqyxjQlR2M1cW/GTMSa/KHZPGpN9YhTagYfinkeJ+lvI41tFjDEh6k28qMipEm6sZy+4Y/Nj4YYwpUaV1rjnEBjXCWzL6kPPfLX/l9xEgTd4IiZ3N6DB+ql0d3fR1dVFbe1Eksngt7hWVXbt2snuPbt6v5YpMhGTfHETrjswz+tle7d4XqZvg91+cQFEpPff3ekMyYR7YNtv9RBx8DwPx3EQETzPQ0RwVLL39Y+bdvwSnGQKr3voil5HnZMIuRleFFTHVyIGQGGHQHHr5oZNKgD/BypcrwK+EnKMUvdn4L1xT2KMCDsRYxULQ4uiYfoi4DcRxIna/UCJbBdZckJNxAjMU5iA9ecxJhS9Z0aOo6f5ny3DMb62TzU9xlJ/GFFeG8SvSNX0mUyufznQd1nSUOd1/XcOyvf9nmqQPXt2Ul1dS2VlcLuUZjIZXnxxGx2dHb1fExF0QnF9i929zyIdL6GVffuzOOKA6+C6id4dkTKZNNrvuciXjEmnMySyyRg/AeMnXDKZDK6bk6RBkZ7/OFUkmWLa8YvZ+tcC7apExsbVRRl/zTMF9oY5/lWNsyve0fpER+EjR6Ve4JiQY5Q0hefjnsMY4QInhRzDEjFDa1Pozm41HZax2ifmgbgnUMLCrogR4OVEk0g0ZtzpWR8gqhLy1RK5LdzxTSnqTneNiTfQtcsb5ga1tfvBy87OqeTIJhyG6O+iqmR06GqYTL9Gtu3te9mzZ1fBnjPFSKfTbNn6fG8SRkRIJFIkExVokc16ARLbh+4XKyK4boJUqpJEItWbdOnRf6mSp0omM3BZUu5z5N+nXxJLPQ5aVNTmIWPjQ+04rIhBNdSrd6m0F1yW05jwzROoDTnGvSGPX+46gZD7V43NpUnAc3FPoIQ9orAz5Bih9g81ZjxzAG5YevTLRJgUZiBRzxIx44zCrtW3P7ot7nkEQfCKaSxSlOlLlvl/6be98mByq0PyJWHyNbYF6Ozcz0svvUg6nR7xXLu6utiy5fneMRJukmSiAtfJVqLUFr+Tb3J78ZvZuI5LMlFBwh148TA30ZLxvJxkzIF+MblJmb5Ne/1kzqQFhQsNBGm4qnF2+fcD0fFXEUPIZdSVUlP+PxdmPJkT5uDqNw19MswYY8R9YQ4ucDD+bazZEvcESpgSfsPeGSGPb8y45QA4SQl3S0PV7Stu2VT8tilmTBDl0bjnEBRROSOIcdzKKqYc4xda5FZtDKWnoiNfNYyqDqiG8b/uZb+X5qWXttPRMfx+yZ2dHWzZ+jwZL4OIQypZiesm+lSqZGqL/8xXqCKmv94KmWTlgOa+uc9Fut9uSblbYfcc22cra5SJc+eDU6BhsJCYqjXlvzTEoTPuKURNQ16ahNvthjq+McEKNRGDVcMUK4rnaW4EMaJmiZihhb08KZBNKowxAzkAos6RoUYRuYPwGxuakqNjJxEjsiyIcaYccwJuKgXkVMEUWJbUUxEzWG+YfF/ru3uSsmfPzuxSpeJ+Dbu6Otm6bQuqiusmSOZZKgSglVNRp7gl74ltw0vE9BARkokUrtO32W/uY+lOZwZ8Pd9SJf8L4KQqmDC7iPyzS7hJahMOscaCxuQIOxFj/WGKE2pFTFao1e0xsUTM0CwRY0yZ8hMxQqiJGE/VliWNRzI2KmLWNs6eBMH8jkxp8HdE1iKXJXk6eDUMkHe76sGSM7v37Gbb9i1kMkMvVeru7upNwiQSKRJuMm8SBgCRoqtiEi89ApmRFWf4fWmSA5Yq5VYV9SxR6qkGyn3Ocpcn+X1ilEkvW1gwrqrOHtGETazEC7kixpjyMjvk8a0ipjj3RxBjLCZitsc9gRIX9u6OdSGPb8y45QBoQCeZg/E09GytKUHq8ULccwiC41QdG9RYU3p3SypuWdKQSZo8vWF6tnIe7Niuri62bH2hz+5HufzGvFvwPK+3F0whXk1xiRjRDIkdDxd17GBcN9EnGTPYEqW8VTG9RXn+fWpmHV7MrGePasImFurIuFuOZcwQrCKmNLyk8ETIMSYXPqTs2NbVQwv7s7ZVxBgTEr9Jgki4S5PSma2hjm9Kkgq7455DIDwnsERM3VH1/l/0QIPZwfjJgwN/HzCtYVTDpPvtLrR9+1Z27+67VMnzPLZt34rnZUgmKnAK9VDJGlafmBEuT8o1VDIm4+VuBz748iRVj+qZhXd8kvCvJJsw5G6VFYJMp2NLbU05CTsR80TI448lm0MefyxWxJihdSm0hzi+VcQYExL/TEs11DfpdMa1ssJxyEF3xT2HQAiBJGKqps8kWePvIHpg2+rBj8+t7shf+VJcNUzuFs+5x+7c9RLbt2/tTVbs2LGd7u4ukolU0UkYILSdk4biuom81TqZTE+VkA5aHeNTqopIxKhYIsYYU9aqBaaGNbhCB4y/huCjEPYudpaIGZ/C3MLaKmKMCYmztnH2JBGpDSuAot6mu9rC3uPelKCMOmMlERNIw9ae5rB9KzMGz8R4Bapliv1aZojKmf0d+3nhhefY8dKLtO9vJ+EmcYpYjpQrU+TSJIDE9n8Oa+yhuDm9a/r0g/H6JmB6/6RvAqz64FlFRBHbttEYU85C+3yXNTbe56MT9udhS8SMT2Em+KwixpiQON2dqZowA4iyYw0M3ujCjFmO542JD2iCHBHEOLWH5Ss8K5xsGc2ypMGqYXKlM2n27t2D47i4bmLA8YUMpyImsX3TkLtEDUfPbko9Bi5P8v/0+i1XAlCU1MSiPq+GfRJjjDFhCvUzHuEnFsaasJ+vsdgjxhQWZiLGKmKMCYmTcJ1Q36QVeTHM8U0Jc6Tst5BdA46ixZROFFQ1PVs5UkSj3qGqZgZbltQ/qVOoGqYvGbAjUbGG0yPG6d6Lu/vJEcXJR8TpkzzqeW5yq2IGfS5FcCurhh4f3CsXHVId2ISNMSZaYb9+WSJmeKwixoQhtESMQBUwsg+IxpghOa4TbiIG1BIx41Q63V32lVDHnzZ/piCpwkcWVjl9JkDO7j2D6zlmOEuQ+iu2agYgmRhii+oChlMRA5DYPvqGvblcJwH0nXv/Kpje7ax7DsgmrgolYgBmJiomBDdbY4yJlFXElBZLxJgwhP1zZVUxxoQgkXGkZviLEYbFGvWasuUlE9OH1zFlcFXTpvt/OZANGPTYoVbvFJuIKbYaxhFn2H1hcnlVB6HiIENstZ0rsX0jnXNfM+J4/YkICTdBOtONqiIieOoBLj3PcTqdJplM0v85T1RV07Vzx9ABqqonAFsCm7AxxkQn7ETMmFiCHCFLxJgwhN0EegJgF9YPcPCboM/I3vYCFfjnvNvxnyvbdt1fKjkTmI7fa6gD2AFsItydvgqpBA4FDgGmZOe1F//97F/A/qgmknAk3DdpsaVJpoypZOogmFRloransKKIHZOG0ag337IkT3VAMmewahg3McqKU8fFq56Bu+/5og6veOKPtB93MVoZ3FJ2x3Eh0w30PE7p83iffvoZjjxyzoDnxK2oLDh2JuTXSGOMCZEtTSotYSeuCpd5mrEo7FYAwTT3K0+HA68CzgGOxE8sHCT+1b7BqPqvjY8DtwKtwG2Mj9fLs4AVwJkCC/MdoH7v2JnAtgjmUwucC5wP1AOHip98GYwqPAk8CGwAfgM8FNbkEoKE3CNGw87SGhMaFzewbvHJGj8RU9S72RB9ZAZ+beTLkhzHxZHit6oeTKb24KITMcntG5l6bRO7zvou3bOWjjo2+FUxrpMg46VRFEHwPMV1hb1797F169ZsIqanUgb/naC7q/DgGSniIGOMKUlhJ5L3hjz+WBP2ku3IruSaklIR8vhxVi9ELQksxU++nCv+yftwifjVIJOBE4CPZJMP9wM3AVcAzwQ035E4DLgRv9KpkE8BvyhwjAu8GfiYQEOhAQUc7d9TIFiT8JNBFwDniF8BUywRmI1/exXwNYXNwJeAqyn8Gn4u8L0iY/1HAvWqCeBEzJixyBOpC2ppUqKm7wY8Q1a9DPb1vImZgcf1NKstxO+vMnpe7SGw5R9FH+/ue4HJLa+n/YQPsnfxpTDCRsF9xnRdMl7af/LkwHP10EMPU1npvwb3eVYE0vsLf7ZQr6tzFoNRqQAAIABJREFU1JMzZvieU/hz3JOI2bVxT2AMCKTH2RCsAmN4wt7VaF/I45vSFPbP1XhIxCSAtwGfEb8KJlDiL2c6Hjhe4VLgeuBy4O6gYxVhjsAxxRyocFCBQxYCPxE4afTTGrUU8GHgvyXAbdcFjgKuUvg4fmKqZYjDZ2YTOQUpSAKHcE8yRGzHEVO2XNUqRtjEtj+nZ3efYRR45l+GVPiYYu4n4uA4wSRhMzXF75zUGx+l5h/fIfXM7ew6+woyk/Jt7z2M8cRBRA7snKRKV1cXjzzyKEuW5H9/SLcX/sya6O62D7YmDtdkb8aMRtivX0OVeJuBwn6+7P1qfAq7N9BYTsQ4wIXA5wReFkVA8ZM+FwIXKtwJfAC/WiYqw3mdGKqa5N3AdyT8iqxinA98TWBuWAGyS63WKdwFXIL/Z3/DaWy9xyGj4a5XU7VEjClbnmpgpXNDbVc9kuNy7jGi+7ujaNDb33B3TsqV3HofU5rPpPLB0V/8zm06rKo8+ODDdHd3U12d52VIIdNRuIq7c2+1La80xpSrsHsSTA15/LEm7OfLEjHjU2iJGPWXu43VHjGvAu4TuCaqJEx/AqcBfwM+T/gVjD2CSMS8WeDKEkjCzAduEbghzCRMLoFT8Hv/XJjn28NJxOx2BCfUN2kJf32yMaGRcNcwDltxFTKF7weMaqek/jK1w6+IyeV0t1O34T+o+917kM6R9zJ05MBj6urq4uGHHwGgtnbgy1AxSRigfXVbm/WIMcaUq7ATyVYRMzyWiDFhCHNp0lishhHg8wK/LXaJTsiTSQp8GvgHcGIEIUebiFkBXEX850inA3cJNEYdWPxeQtcAF/f71vAqYlTCfZNWS8SYcuY4gb3IFNUYNgDFLUsSJKAlVwBds5ax/+g3oKPsN1X56HqmXruc5HN/GdH9ex6TqvLII4/S3d2N67rU1Ax8Gep4cWvB8VS18EHGGFO6rCKmtISduLLmyeNTmEuTxloipga4Ppv4KCnZxsC3A68NOdRwXif6J2KagF9KUFvKjtyFwO8l/P5IgxJwBH4AfDLny8NJxOxz9tEd7pu0yMjXLBgTM1HNBDVWel/2dW8U+Y9ilh0Vc0xu5UgQtGoqu8/8Fi9edBsdc187qhpWd++zTF63ipq7vwJeelj37UkwdXR0sHmzXw1TVzexN0GT+9Tve66ohvXPDmsCxhhTWsJOxFhFzPBYRYwJgyViijMb+LP4/URKUnaHnxvwdyEKy0grYk4AWoa5C1EYPibwixJYFgWAwGXA27P/HF4iZjObQ16apLPDHN+YMHkqI18n00/3vj1BDZUjz9KkItIgQVbD5MpMnseuV/4fO1b/gc7Dl494HFGP2r9fzuQbVuLsfnJ49xWHTZseIpP2c2gTJ+a+JkrvMXufeqyY0SwRY4wpZ7sJsb+D+Nufjn7bu/HDmvWaoAkB7hCTR2Cfg2N2AvBXgWPjnkghAgnxt0r+UEghuhSKvdKZm3T5vhS35XWYLhP4GvEvi+rvW8AshpuIWdNKmlBfuGXiz5ceHlvZkDGjIWhgb0Bdu3dmx+wZO5zXkGJ69UpAuyUNJn3QMex87TXsOL+FrkNOHvE4qS33MPXaM6l8+Pqi77Nn9x6eePyJ3n/X1R14TZQDTz7tzz1dcCxRLSZbY4wxpcpTPxkTJlueVLywn6vtIY9vSs8EgWDLnPt6KsSxo3IQsE4Kb8U8JIUtCt9UeIfCmQrzFCoVUtm/n6XwboVvKWwb5ZxF4NvA6lGOM5hiz/17EjGvFFgS0lyKtUr6LgMaMYVNCr9U+IbCRxXepvAhhc8rXKuwZTjjZbfL/iFFJmL0/7V35/FRldfjxz/PnZmEHREUBBUXXINUxbpUq4BVa60GtdK6ddG22t22fvuztbZ2V9tqW617axeXVusC7gsQRAVFVDBhV0BQ9j1km8yc3x/PTEhCQubeucvM5LxfrzES7r3PM5Mwc++55zkH0kBjHECETcYEV8ulh+m9P8EXjFPKdylJbYn7tAyyYe3qzP8ZwixA32GNmJACycmhx7Hp3CcoWz6FPq/fQGLdXNfHcJK19H/pW5R9MJltp9yIlO06GP/OO207AA4YsCNj12Rr2BiHre8tzGF0s8TtfJVSqsBsJtg75rsDq7vcSkHwgZj3Aj6+KjxB3+xeFvDxgxYHHjawj5edMxfMz2Mvsp8Ekp1s+h5t//1dI7aOyXdMfgV4/wbMBRbkcYyO1JLb50I2EPNzn8d36wDg7/kcQOB94D/AQ0B1DtuPBC4DvppLJpCBM1xMpwls73RMwGuI4/HYfkEeX6mgpE3atwBifTYQ0yorIwoGfwv15qJp+Dg2XvA8m8+4h+YB3joE9lz0GAP/cyqJ1W92us3y5ctZs6ZtEHvQoB03QFqetghblnT9mZaW9CJPk1VKqcIR9I2w/NrmdR/9QygsqYGY7qci4OMvC/j4QbvJa1cdgXnAkcBnsHVbOgvCdKQRu7zo4wKnuc2wyDLQB/gf/je/acxxux7AGQZyTm8X2CTwoMAVAmcLHCtwpMAnBb4s8Cvc1R4qBx4xHm8oCGwW291oBHAtOQRhMqqBHwD7CvzGxXKuXDRCJhADEnAxNzky2OMrFYy6jVu6Xr+S67FW2+KwpotIzK6CJL4EUEIOwrQet3HE2Wz4QhVbxv2JVF/3Nydi2z5gwGOV9J51M6Tb1lFOJpO89dZbbb7Xt29fevQox8ksxcq+9g1rV5Nu6vozaHuqNtc3a6WUKlRBF+yNOl29WJxA8LdgNBDT/Xw84OO7K9RXWC4y8H0vOwrcg81kedeHebwEHC0ww8vOmW5Kd/gwj9ZybUbSkxyzYQRmiw1a7QlcDNwNPAXMAuYArwD/BH6Gu85Ntxhb48c1gUeAwzJz8bocYTPwU+AE8S8zaUcgRkzAH9LGeC8SoVSEvjh3zXZBNvhxrK1LM6tccgiEBHmmFnl1KydGw2FfYP3Fr7L15N+S6uVuya6RFH3euIkBk9oum50zZw4NDQ1tvrfHHgNbOim1DmJtqnmny3FEWHHxKx/okkqlVLEL+n3sxICPXyoCfZ3EXiz4cr5SYCI/bSlwQQdilgV8/KAMxwZTXBFICVwEfB2o93E+HwGnCNzlZWcDlwKf8HE+uQZijjM2iNwpgQ0CF2J/F5/F38yRUw18w8uOAtdga+z4tXT2TWxWjx/Z8juWJgFB10E4Fn0jVUXKYHy5G7Bt6eI29Vp2md2Sbbfcbpud9ynif1axMuqPuIz1l7zOthOuJV3urvtiqs+ObPg1a9awePHinbbZYw8b5DHG4LQEZBzWz87lpoS87WpCSilVmGoCPn4YmR6lIOiAValmwwRZ36gUaCCmYz8x0MvDft/B1hAJQhK4UiD3DhRt3ejjXNK5bGRsRkynxH6+HIutvRJEAczrvOwktqivn69X1nrg05J/cKcZsoGYtMzO82C7ZKD/YyePPDTIMZQKjMhSPw6Taqin7qMVmWBKF8uT8jinLbqz4UQv6o7+DusvfYPaY64inej6c1OA7Ud9C7BLkmbOnNnhdkOGDG4JXrUEsYzD2lmv5jAx6figSilVXII+xxuATf1WnYsT/BKuUg3EaFeuzg03dhlIIAQ24m4JSaHYF/iK253EtiD2ewlQR74sHgLkBk4CzvZpDrlmxHRK4A1sID6oDqMnGTjF7U5igzc3BDCfrKXAmQLb8jhGGjKBmCTNnVe/9Enc8TWdSqnQiIgf60MB2PiurWGyIyjQ8XYtf91FRkyHWTVdLH0Kr1+TO1Lej+3HXcP6S99g+6ivIU5Zp9s2DT+N1EB73j979mzq6nau+dW/fz/69LG1zYwxLXVi6j9aQdOWHDL100YDMUqpUhBoICZDz/F27UiPd+fdKNVAzKCoJ1DAgs6GCTqbLig/MZBws4PYJTU/DGg+7dUC5wps8bDv79ixoiUfeQVixLY1ryS/YERXrnW7g8CLwK8DmEt772B/hl5fxx2BmOqqRYtEJMgXEhw+G+jxlQpIGpnT9Va52dAuENPZ8qTOMmJyKdbbfpOd9ynUUIwlPQdR+8lfsf6SGdQddhFiYjtts330dwBYtmwZS5d2nLA0bO9h0KpDVPY1XfXyi13PAWlaXbvpdY9PQSmlCskKgXUBj6F1YnYtjNenVJfTaiCmc0EHYorxPMh1NozYwqnfJMflOj5ZjF0+40qmcO+pPozvORAjdonVOfhXe6Ujow182s0OAtuxtX3CMhnb0cqLHYGY6yENJtA3cBHOuGv00KDvBijlu3Rzaq5fx9owZ5b9H9PF0qRdBGo8Zcm00rpOTSFL9x3GtnE3s+Gi6TSMGN8SPmra61iSex3L1q1bmTVrVqf777P3MBzHwXEcYk7M1oeJxVj1yktdDy5m5hWzP3LTWk8ppQpZ0FkxmhGza2EEYqaHMEYU9o96AgVMAzE7+7GBzlOqO3Yb0dTCuVfsMhe3LvZh7HyCTn/GdkEKkutsmMw+y3yeR1e81qHZEYixJNDlScbQc3Cf/mcEOYZSQTj/lUVLRfzpLFa3aiXblr/fZUZM679zW7DXySFrpliCMQCp3Q5gyxl3svHzk2kcfhrbj/4Ozc3NvPLKKzQ3d1yYvVevXgwcuDtAm45JjRvWs3VJ153nBJns3zNQSqnIBXuOBwejmQu7EnTHpCUEe3c6SkdEPYEC5QCjAx6j2AIxPYEvu9khUwfnN4HMpmtJ4HoP+51HF0V0c+ApI0Zs96df5jl2VwZglz3lLNPJ6NZgprNLbws852G/toEYCWENsYnFzgt6DKUCIEAu1V1zsmZGFQDGOG2+tueQWyDGbUYMFFcgJqt5UAWbP/tvGod/ipkzZ7JlS+dLaw84YL82batjmfowyyf+J6exhNTTvkxaKaUKQxh1Yj4ZwhjFaISBoQGP8XLAx4+SBmI6dqyBfkEdXGAVsCKo4wfkkwZ6uNznj0AOhQMDc7/AfDc7GOhL/kV7vS5Nuptg68IAjDXu6+DcRbhLy1rzXBi45Ummk6nAC/YiUvnASfsOCHwcpfw3za8DrZpul8aYTHCgs+K6ndaPySEQ0/pbHR1HJKr3qvy9++67rFjR+bmBMYYRIw60S5JisR3LkpwYK56f2OXxRWTVuVMXvOXnnJVSKmJhBGK+GMIYxeiyEMYo1WVJGBgM7BH1PApQ0L9XxZYNA3Cay+0F+HcQE3EhDfzNw35f8GFcL7y23nbjU242FmgA/hHMVHIyTTwu1WoJxJz3yoLFIFv9m9POjDF9+yb6XhXkGEoFId0svgViNi94l9qVy7su2GsMplWx2Tbf7yIY47TLsmn/9+l03l3rIrFs2TJqanZdxH/osKH06tWTbKHeWMy+Fptq3qFp88auBzFmIoVe0VgppdwJo2Dv2cDeAY9RbMqAy0MYp5QzYsCf4qSlpBfw+YDHKMZAzOluNhZ4hcLI+vFS8DXfulyuz3MFFgLVeY6bC1eBGOAR7BKzKHl6D259tSYIgd8FFsx37z9uRGCpdEoFYU6s5i2/6sQArHzxSWBHVkyny5M6CdZkWzFndfX37aUlXXTLk1atWsXrr3d9XnDQQQe2tKvOBrMwDovuuy2ncdJp/pvvXJVSqgAFXScmBnwtyDGK0PkG9gxygEzNhveDHKMAXBL1BArMBUEuS8rw7QZkSAYb98vYHgpkJu4tF5eBr0ym2LCA5tOZMLJhhhs4yOU+/wpkJu684WWnNldraTE5tBPJjzHs1q9Xj28HPY5Sfrq+imaDPOPX8VY89zjpVPOOAEwXy5BcF+x12jbALvblSevXr2f69Omk07ue85577sFeQwbjODFisRjxWBxjDHUffsDG6q4bw4nIqjlV1aV+Z1Ep1T09GcIYXwXiIYxTLL4ZwhgvhjBG1M5Alye1FuiyJLGFn2cGOUYATqOzVqQdE2wmRaHwMpdjfJ/FrhXisqQUhfG7+oGXndoEYpx08sFwbpPL9/81anDv4MdRyj9i5Am/jtWwfi2rXn6pTUHZjoIxxhic1tu0/n6rrJeOlis5sV1nzaSKZHnS5s2bmTZtGqlU1/MdObJiRyZMS5Few4K7b851uH9fH12xL6WUCtLDYrt0BCZTlPacIMcoIkcYOCmEcR4MYYxIGRvcy7cmRqk4yMDJAY8xieJbou32Av49YH1Ac/GiysM+QXfNaiG2LXQY9RPHuty+GqgNYiIueZpDmyu1c15euFTgNX/mswvGDOo3aI9vBD6OUn5qTD0H0ujX4ZY+dj+Qy/Kk7N93tTyp7Z9jXS1PSqcKfnnSpk2bmDx5Mk1NTV1uO3ToXgwevAeOEyMejxOP2SK9TRvXs/aNV3IaLynJ+/Kds1JKFagNwAshjKPnd1bgr4PAGmBy0OMUiEujnkCB+EoIYzwewhh+O9Dl9oXWlKFaoNnlPkcHMpOOdZ1W7o/9XW5fCNkw4EcgBgCR+/OeSg4MXP3wCXvn2wNdqdBUvrpwm4inXvEd2jRvDuvemmkDKC0ZLR1nxZhOsmK6+nOsXdZMe6mU2/f88GzcuDHnIEwsFuOIUSPbZcPEAMPcW36Z03iCTP9c1aIFeU5bKaUK2QNBD2BsYVW3a/xLTV/CqWvyMN7b0BYVAx8HDo16HhGLAV8KcgCBrcCUIMcIiNtaTGEFFnLViMs21sBeQUykE6tCGsftEsQZgczCPU/vwzsFYhobzcOCdH3lkycDg8t69NOibqqopCX9Dz+Pt+iftwM7sltMJ1kssU6yYmKxWJs/75QV0+XypOaCzIpZt24dU6ZMIZnMLYt+5MgKdh8woFU2jK0Ns3VhNetn5/oeLbd6n7FSShWFSQLbAx7DAFcGPEahu8TYYEzQAg+sFZjrop5AxM7NLP8L0rNA4NeBAXB7AV9oGTEA77jcfrdAZtGxQg3ELA5kFiHZ6apvwoyajQjPhjG4Mc5PHh5TMSSMsZTyw9pt859G/GsBurH6bda8/nJeWTG7qhXTun1zR38P0JwKtGSAaytWrHAVhBm0xyAOOvhAHGdHp6SY42BMjHduyu2cTYSVb6fnFWMqrlJKubEd8K3e2S5cCewXwjiFqD/w06AHydS4KMYWw54ZuJBwl2MUkt7AH0IYpxjPhRLGfVBiWRATydMSl9uXWiDGy88x6rbVeenw9rsIYS1PGlxuzH+vH6MV9lVxuGI2STHi6x2oeXf8gXRzEsex2S1us2L8qBXTVTeisCxcuJBXXnkl5/mUlZVxzDGjKUskWjolJeIJjDGsePZR6latzHFkueX6Ktdrc5VSqhgFXtzVQC/gzqDHKVA3hpC1AIXTejdMBvh91JOIyM8NDA9yALHFaycGOUZABuGuYxLA5iAmkie3c9oN98/bqzACMV46o23yfRYh6vAKbRPbnxLYEsYEjOHkozn8d2GMpZQv0vxV8K/3c+2KpSx94qFMtorTRQclp5Osl1jb7dplySTibf9+p6yY5qZIlyil02lmzZrFW2/lninqOA7Hn3Acu/XvSywWJ5FIkIjHiTkOzVu3Mu+O3G4cCbJhy4b1d3mdu1JKFZkXJIRuIca2HA6jTkohOdnA14MeROzSkW75uWVgHHBm1PMI2Sjg+yGMcy/QEMI4fvNyAV/0gRhjr+PDWAIJ4WSeePk5ll5GzFeqljUgofQKz8zCuXri2JHnhTaeUnmorKpZgvCkn8dceN9t1K35KIcOSgZDx1kxbYMzbf/sOM5OhXtb/70gkS1Rqq+vZ/LkySxZ4i4jc/QxRzNk8J7EYvFWS5JiYAxv/PTbpJM5L3H+0xfnrgm6ZoJSShWKZmyR1zDcgr1b3R2UA3cTzh3qfwG5pnwGbddpt8G4MaJxo2CAOzMtvAMjttjoHUGOESBXhXrFBpsKsQ7OVg/79PZ9Fh0L426tq0CMQB1QWPUVXOr0TcxI6p4wJ2KM3PfYSYceHOaYSnlm0jf7ebhUQz1z/nh9JpvFtl02Tmyn7bLBhvZZL5Bb4d6OOidlpdOp0IMx69ev5/nnn2f9enc3Z484YiTD992HeDxmg0yxGOWJMowxLH3kX2xdkmPzI2FdY5o/eZi6UkoVs1slhG47xgZhfP28LGDXGTgk6EEyP7cbgx7HhZ1PVgJm4Ai6T+Herxs4IYRxngQ+CGGcILitK1Konca8/FvyErwpVG5/jmEtywpMp4GYc6rmzxSRENcJmn7xRPzRu0YP7RXemEp5Uzll/ssi/vauXz97hl2i5DhdLlGK5bxEqe2fu1qilEo1k0oH//kkItTU1PDSSy9RX1+f837GGEaPPoqDDzmIsrJEy5KksoStC1O38gMW/uOvLubBbyZU1dR6eQ5KKVXEFgD/CGMgA5cCp4cxVoRGAT8KaayHcV/UM0ihB2IyfoZd/lbKBgM3hDRWMXeOzP1EEjA2iyQR0FzyMdDNxpkOeKWU0e3259gTKAtoLqHYZVpfUpLXhHHHpIVh5JB+u98d2nhK5UEk5fvdmHl3/p4t7y3MLFEynS9RyizFab8kKZsdktVhvZhEvM2fO6oXk0oFV7e2rq6OKVOmMHfuXFd1aWKxGMefcBz77b8f5a2CMIl4gpgTI11fz8yrvwo5Fx6Wxau3Vd/u6UkopVTxu17CqwdxJ7aAbymKAfeacC7sBCi0uoqRLBHK1Md4ANg3ivFDYIC/eugi45rAPGBK0OMEyEvB1t19n0X+3M5pTSCziI6Xuj1hdo7y3S7fPD9XtWiBEe4NazIAxnDxpLEj79ROSqrQja+a/xIiVX4eM51MMvuXP6R5ey1OrPMlSmC7KGXrxbQPxrQNvjhtAjpOLsV7U8lAgjFLly7l2WefZe3ata7269evH2PGnszQoXu1CcLE43HimcDTaz+4jKatLt7D0+YHV8wu7rWlSimVh5XAbWEMZGB/bAZOVNkTQfqjgY+HMZDY5SPvhjGWC5H9TI3NIHiEIr8r3onbDZwf0li/DGmcoHi5gHeVfRISt3NydzJd+Lz8HAf4PosQdRnFbhC5nrDTngxXHG0qnnt8zH5FHeVSpU/gp34fc/vK5cz+1dWQTu8yGNO6XkxXxXsdp10wxnFIxLvIjEklSfrUTamuro5p06Yxc+ZMmprc1UcbMeJAxo47hQG77dYmCBOLxYhnivO+/Zv/R+3y93I+piBPnVNV/ZTb56GUUiXmd6F1yYQLgL9TAuv6W/mdge+FMZDYopQ/DmMslyINrhk4FvgrpfV7dYuBK8MYSGAW4RXvDoqXC/hCzIhxW9hcM2JgH99n4Y2n98EuAzETqmpWI/JHLwfPizGnOqbPzIljKkaEPrZSOaqcWvOqIP/x+7jr3nyN6ttvstksLcV7d/7naowh3kHx3my9mNbfa58p4ziGskS85cylo2BMOp0imWwknfNyn7ZEhMWLF/P000/z0Ucfudp3t91245Mnn8iojx1BeVlZm5owMSdGIhbHOA7z7/gja16d6mZOtY1NfMvtc1FKqRK0EbgprMEMfJHi7czS3nUGrglxvD9gl5AUmsi7Fxn4KvA3SiPj6ncGrgpxvP8jnI44QfJyAX+477PI3yiX25daIMbLErNjfJ+FN/297JTTm2eD8HuJIP3JGA4xDq8/NvbQU8IeW6lcNdYnrxYR3wu+LnviQRbdf7fNZmkp4JtfMMaY9suWbM0YxzEtf26fTSMIyeZG19kx69at4/nnn+fNN9+kuTn3ZU69e/fm2GOPYey4U9hzzz1JJOIkEvE2y5ES8TjGOCy46xaWT3IXBxPk2gmv1BRrZwCllPLbnwRWhzWYgSso/k5KV5sQl3MIvA/8KqzxXCqI4IeBrwD/pbiXKf0szOCewFPAtLDGC1CdwDaX+5wYyEy86wN8zOU+pRaIqRNwd9c2pGWhOfCUYZVTIGZCVU2tiPzCywD5M7vHiL84cezhl0UzvlK7NmHGog+N8Osgjr3wvltZ+sRDtqV1q4BMe50FY4BOgjHtuyntqLWS/V5H2TFNyQaam5O7DMjU1dUxY8YMXnrpJTZtyj24PXDgQI75+GhOO/1U9tl3H+KxGOVlCeKxeKvCvHGbCWMcFv79VpY98WDOxwcQkSnjp84r5s4ASinltzpCrhFh4PsQzOdmCL5l4Pdhj4nLjiIhKpiajpmaKk9hu+IUmx8ZCO1aK9OMJcyMrqC97XL7TwQyC++OM+6DmqVWIwbgLZfbF0ogZk8vO+WcTviO1NyNsMDLIPkyhoQxzt8mjq247eETKgpxTZ/q5lZtq7lZELcfAjmpvvW3vP/o/TkHY5xM1kvrQEosFuuwtXXbbRzKusiOAUilm2lKNpBsbiKVTrUEZZqampgzZw5PPfUUy5Yty+m5lZWVceCBB3Dqp8ZxyphPMnz4vsRiMcoS8TZLkRKJBGVxG5TBOMy/4/csn/gQ5bvnvpxWYIukzJcp/hRcpZTy270Cs8Mc0MC1wE/CHNMHl5uQ2/yKrd/xXJhjulRQGSgGTgNeoni6KfXC1oS5MeRx7wZqQh4zSK7evwyMwOPFc0C8ZOi4DVoUA1fXUsbWiBke0Fzc8BQQyjkQc30VzdKc/Dz2zkkkjDHfKu9p3p80duRP7ho9tKjbIF4/hvgTYyo+N3HcyG9EPReVvytmk5Tm1JcEcVeJNkc1t9+YWaYUszVjMgGZ9mwBX4eYs3MwxnEc4vF4y/eywZiOsmMS8Vi77XYOyKTTKZqbm6hv2E5NTTVPPjmJefPmkUrtuuN9//79OfSwQzllzMmc9dkz+diRo9htt/52ftksmHi8TVHe8kSZDSSJMOsn32Tli0/SZ5/96TFwT2I9c3wrEC4b/3L1itw2VkqpbiUJTAircG+Wgd8A9wA9wxzXgzi2dsc9hFgUVmA94dYL8aI86gm0Z+B4oBr4etRz6cLpQHXINWEQWAr8KMwxQ+AlkFxIpS/GutlYYAPwekBziZKX4NKlvs/CPU8ZVq4KbFVOXzg3FVIV784Y6I/hN3v1G/DeE2MrvnnXaBJRzsetR8e93E1vAAAgAElEQVSM2HvS2IpfHGUqPnAc8wjw86jnpPwx/uUF7xoxgaWVLrzvVubc/AuQdCabxdllN6VYJjOmfU0YG+ToKDumbWHfsoQNyDgdBGSMMTQ3N7N40RKee/YF5s59l6amnTtB9+zVk6FD9+LwisM48aRPcNZnP8OpnxrL4YcfyqBBA3EyQaNEIk5ZIt4SgGm9FKk8UYYxhtT27Uy/4vNsXbKAPvsMx8RsNnSvIcM6bfGdJcifK6dWP+buFVdKqW7lfeDysAfNFFqdCRwc9tg5GgZMydTuCDMIkwYuBFaFNaZHBReIATDQ18BdwAsUXnbMQOCfBp7PtHYPTeb36kuA77UNI+YlEFMoZS8OMu6DQs9hl5eVmlke9vmy35NwaTfc1/cBPKzrPHdK9b8nja04HmO+6WVA3xgzxIG/DulX8YNJ47junCk1/6FAlxz8ZcSI8uH7JD6FiV0OnAPEWjrVwODHx4088Nwp1bn33lUFq2Fq9Y09xlachjFjgjj+B0//j7rVHzL62ptI9OtPOtUMTgxJp2n/6+84DkYMqXQaHNvBKLuMKBtQSafTpNPpluCKiMlsl27ZznEcRIRUOk06bY+xevUalr6/lOZUikF7DKKsrIzy8jJ69epJr1696NWrFz179mwJ+LTOpsn+fyxmgzB2bKcl0BPLtOwuSyRwjAMYtsyfy5u/+AGxsnJ6Ddm77fOMJ+i11zC2f7QCOqhdI8j01Vtq/s+vn4FSSpWwRwVuNfCdMAc1MCqzNOoa4E4K5wLjIuDPxn1bWT9ci11iU+h8D8QI3GR8ytgwcJrY7JgfA/cCjX4cNw8XYn+n9oho/JuB6RGNHaRFAhuMDXLlxMAZAgdgg9BRuhL3Qd6ng5hIAfhQYJZxsdTHwIECJwMvBzivXfmh8Vgry9NODWv5fvmeHG0Mx3vZ30/GmAOBByeOrfgRyK1pqXvs3KplXtqY+erhMRV9ehj5jBhzLsJZxpi+u9j8E4AGYkrABEg9LFzYA3kbY4YEMcb62TN4+coJHHP9zfQ/uAJJpxBjkHS6JYCSZYwhHouRThtSkkZEWlpRt+6q1FFABoR0WgBpOQ4xG9DZZ+9hDBs2tE1wpyt2uZRpUwg4W6cmOxc7TrwlQAOG+Xf+kQ+e/h+99hpGvGfH9ffivfrQa6+9qVu1sk0wRkSWNTY3nn/FbHZO11FKqZ1F3oq3AFwtcIIJuS2osV1DbhO7nOQ7RHdSDXAkNiB1UhSDCzxO+DVDvAoiI+ZBgWEGLvbjYAb6Yn+3rgP+im2hvt6PY7twEvATA2eGPG6LTEDqp1GNH7A08AjuVm4YbBe3/xfIjHLTE5cZHZlCy4VcNypf/8V9zZWriOYzYxDwPa87ezrhmFBT09QsDRcgrPM6sN+MMUca4/wt5vRePXFsxRNPjBn5+YknHrKr4IevHobYpLGHV0waM/LySeMqJvUwrMM4/zWYL3QRhMEpvMrdKg8TqmpWN5P6ggR4R69+7Spe+e6lvPefv7d0QbJ1YzpeouM4DnEnZuvH7NRFyQZB4vF4y/ezWSp221hLxsqO7R0ScVtUt7wsYYvrJuKZ+jL2kf1eeVkiU/cl1rLsyHHs/8fjOx7ZZUjxmB2vYe1qpn/tfD6c/BR9hx/QaRAmK9G7L3323R8nYVcrirA5JemzJ0xfUjDvU0qpghfa0pMC1kQE9WKyDIwytqXu/4DjQh7+cOBvwJsRBmEWYi/MCjLLuwNBBGK2Ad8T/L3OMDA403Z8BXbZ0qF+Hr8DfYFvAHMNTI84CFOHraURdUZQkB7wsM9l2ILJUbnIuG99/BqQe1vS4vMILt//DJwLnBHMdHbp/2UCvZ54bjl3ftWSlZPGVXxBMC94aLcVIFNuDJXGUCnlidSksSPfESPTETOdpuTMylcXuu1PvpO7RpPYs29FhWPkaDBHgxltDKOAXvYUzrg9lSu0XvYqT+dNXTBt4piKq3BMYN0VpLmZ+ff+iTWvv8zHfvgLeu89vMvsmJiJ4YiQlnQm86XjDJns90Vkp1bWNgNGMokn2ffJbJCGNl/BtAngAC2ZLy2ZMJkAUcsYqTQL/vYXlj31MD0H7kHvobkv7Y6V9aD3sOFsW7a4MUVq/HlVC6pz3lkppTQQk7UUe4HyaFQTyLQiPl9gBnALNkukOZihOA34gbHFUyP7HcgU4DwX2BrVHDwIKhCzAfgu8JDfBzfQA5t59XWxnYOmAFOxAcCNeR7+cOwF4aeBkzNjRU2wQZh3op5IwF4VWG5cdNExMEhs2/AolrDvji1Y7lapLkvK+kBghnGfqHAbMJLwgo17Ad/K5wCeAzEA50ypmTJpTMW1OOaGfI4TFAMxDKMNZjSGqyhPMGncyO0C7yGyBHjPCBvSUOvA9jTUCulmQ6zcID1AemJML2wEfS/B7AWylzGMAFPu32e1VNx/3Ih+l7y+pJg+eFUXKqtqbps4ruJAgwm0Gv7Gd99i2tfOY8SFX2XEhV/FicdJA4ixwZh2S4faBmSkJSCTfWQDJNnsmNZBmezf2wBLbvNrXeC3JRjTKvjSEqhxYnz00lPMu/OPNo943wNwYu7eoiSVZPuHK5rTqfSF501bMM3VzkoppYGY1h4TuCFTpDYyBk4AThDYDDwDTAKeJb9gRQ/gVGzdvrONPaGOVOb5nQbMj3ouLgURiMkWkv2P2IyBswMYAwADFdjHdzKFbOdga6iswGbktH5swf7u9M08BmCLTB8OHAZUGBgc1Fy9Elsfpzs0LBBs4M7te9b3M/uF3Q76D25/X8T+27gvoPkUkr/gMhBjYITYpXfXBTOlndxg8uz4l1cgBuCcqpobJ405fBCOc3W+xwpJbwOjMGYUAGbH+iz7NZvcY2h/PmZa/ddPBuP07t3jeGxld1VC3p5S88Ojx43cDxgf5DjpZJJF/7qDFc89waGXf5eh4z6DAZshky2+22FAxuCIQQCRNOlWAZls7Zdspkxr2b/rqD5M+wyY7P872S5O7TJsjBNj/azXmH/vLdSv/ogeewzuchlSh69BqpnaFctTqcamS8ZPm/+46wMopZTWiGnvxwJi7IVcpIztTHERcJHYdtvzgLmZx7vY7kJbMo9t2BPk/pnHHtg7paOyDxPtcoQ2xAaVTgfejnouHvjaelxs1lN9q299Q+AUA/38HKcjmUuCozKPkiDwdwqv3tCe7HidDwHW0vbfcj7uEPi+cREgNBAT25r+WMIrFH6qga942O8m7OtV6h4R+Kmx79s5M3Btpj373wOaV9YtBr6Y70HyDsQAnFM17/8mjh251hhu8uN43VGmTowGYkrM9ZD+ywcNXxi+b48njb3TFaj6tat4+3c/5r3/3sdBl1zBkJNOxTimJSBDq45IWcaYzIq6GDEyGTCZQEy61batgy8dBVta/9ke02SK8zo2rNkmMOOACB9OeYbF999N44a1lO++B332PcDT8041NbJ95fLmVHPyS+Orav7r6SBKKeXTeVGJ+YlAg7Hp+wXBQALbLtRTy9BCIjZo9Gm8tW0tBH4HtNq3Vf4QG3ybWFilEAqf2OVWborXBq0H8Dtji5t2eGdb7DKxq/AekPkAuB2b5ZIzA0eLDViFkViwNx4CBWKDzTf7P52ClMZ+5jzicj+DDapt87Bvrv5k8ijQ25pvd34qp1b/Pk36siALlJY4Ldhbor67ZEljY/3mSkSqwhpz6/uLmP3LHzLt8nP54KlHkGSSWDyOE4vhxOK2qG8na4ts3RaHeCxGWTxBIhYnHovv+Brv6JGw28bjLfsk4nFiTqxVBozBicVp2ryJJQ/cw+QLT6f6L78FoO9+Iyjrt5un55pqqGf7iqWN6ebk+eOn1jzo9TVTSik0ENOZX0q0nUVKUmaZwVnYOjjFyn0K665t6+B7T2MvzlWOxHaQqYSC6Rp5GPC2sT/HTpcXGBiHbWX/qTzG+q14WLpo4IfAz/MYNxdDgMkGci+AuMP1wHZ/p1PQHhWbJeVKJrPtAeBL/k/JvyAM+JyCO37KvPsQOQ+RBj+P2x0Y5LjrNSW6ZE2YsbK+QTg7zGAMQO2Kpbz751/zwgVjefdPv2bTvLkYxwZjsgEZk+mK1Nnnol1WZGvGxBwnU9+l/SO77Kh93RcHJxYn3dTEymcf59VvX8KUi85g6eMPkujbj77DD6Ssb/9Ox+5KsnYr21Ys29zcnP505dSaSR5fJqWUytJATOduEnsCWizdfAqawHJss4bpUc8lT0FnxGTdJvBnn8cqSWIz7M+k46BWFGLA/SbHLlWZjLdHsbV7vFgP/MHLjsYGO4LKihkEvGRsXSFXxNaO+pv/Uypogi2o7bpIu4GEgX8ATwLDfJjLYcDjfgZhIIAL/8qpNZPEpM+Iqu1h8TL9jvrkIa7WwaniMqGqpnbZisZPi0joBdNS9XUsf+oRXrvqS0y5+Axq/noDG2bPxIjYTJnMo01gxphM1kwOQZJMu2vjOJhYnFg8Qf1HH7L0kX8x8+qv8sJ5JzP/nlto3LyBfgccTO+h+3iqA9Naw8Z1bP9o5dJUs3zi3KrqqrwOppRSlgZidu0vYpc6aDAmDwKvAB/Hw93eAuR3IGZXwYMfiL2wUp0QmIgtblwX9Vxa+baBo93skKkJlM9yyD+KrSPlmoHfA3/C3/pHx2BbmHsNLv2I7rnq5HXgV153NvBZbGe07wEDPRziIOB+oNoEUO8zkBOOyinzX35sbMUpcXgOY4YEMUZJisU+QWl8KKtOfHfJksbrl3DB0WNH3o7hiijmUL92NcueeIhlTzyEk0jQ/+AKdh95FP0POpx++x9Er733xYnFM2fZkjndljZn3S2Fq43dpGnrJrYsXsDm+XPZNH8um2reIdXQQLxXb+K9etF3vxGuOyB1RtIp6lZ/SHNt7bRUY/2E8157rzsULVNKhSMR8PGDaL8ctrvFFlO9u0Ba8xYVsXe1vwk0RT0Xn4SxNCkrDVwo8LLbC/vuQGznny9SWO8zBptl4sV4bCvq5R72rQMuEJjlpTC3ge8JfAZbUPdVD+NnlWGf/4+81jgS+DXwVB5zKHa/Efh0poOea8YWbP+T2ADb89hlS89hO9V1pC+2ZMiFwCW5/NwENmcKyrsS2J2f86bWzJl08iGfkFjiH8ZwclDjlBTHORG4M+ppqGBdD2mmVl/5xNjD5zk4f8REdwc2nUyyqeYdNtW80/I948ToMWgPeuwxhPIBAzPBlN4Y49jOSskkydptJLdtoWHdGupWf0g61UysrJxYeQ9i5T3oscdgYmX+n5+nGuqpW72SdFPTLW9JzY+uf62gTjaUUsUviFa8rZXKxfe/gbcEHjAlUDA3DGJ/9v+HbctaSsLMiAFbI+NUscsExvg8dlHKtN3+OfAbCi9bbX8vF6jQ0s3oVLx3wJmHDXr+w+P4B2Vq7fwDWwB2povd+wKfA642tr25J2Lfa8Nqx1yoUsDFAjPyaQ+fWfL22cwjW6Prw8xjCzZgMxg41E3QLPPv7yLgGbdzCvQC8JyXFy4Fxkwcc/gVxjE3ggm89VwxM1qwt1sZP3XeXyaeUvGucXgYYwZFPZ8sSaeoX7ua+rWr23y/bMBAW//FcezypXgMJ56gz777YZzgY0mNm9bRsH7txlQ6ffm5VfOfCHxApVR3FHSGR6EUzvRDDXCs2LTxq43WueuUwJvYO+vVUc8lAH5nxHRWI6a1zcAZAn83cLHP4xcVsfVQLgReinounTgiz/33z3P/fwp80sDlXnbOvK9dBlwmsAj4JzAZ251pNTsCX+XAPth23J8HzveSidNapoOUp3mXoKXApwSqjLclRjsx0Af78zokz0P9DJth40YKwvnQlMqqeXcm040VgnTntKpcHDDxuP09R/pU8amcVjM1nTJHi/By1HPpSnn/AfQYuCflAwZR1n8Aid79iJX3DDwIk2pqpHbFUurXrZ3SUJ8cpUEYpVSAgg7ElEpGTFYTtpvSOPG2fKCkCTQJ/ASbUl+KQRgId2lSa03ApWKzQLolsRkaR1G4QRiwRU7z4aW7UHtXiF2OkhcDBxv4jYGZBj4CGoBlwGoD9QYWG3jKwKU+BGGqgfMoreB9vqqB06TzJUWhy9Rk+q2HXZsgxLsX51ctWVk5peZskIsQ1oU1brGRHj00K6abGf9y9YrGqdXj0iI/L+T278la150A8yQ0blrPtuXvbUvWbb+ycmrNpybMWPRhyJNQSnUvmhHjzTRgVCaNXgECs7B1TH5HYdXs8Jvf2e5uOv0I8FOBr3nprFKsBJoFbgROAVZGPZ8upPPcv9GHOaSAL4rPXYcMlBkYnlku4639ZwcyLZs/gza+6cjbwOkCq6KeiMCz2JpMXpYDhhuIyTpnSs1DtdJ0uEj+kclSZBzn+KjnoMI3AVLjp9b8UiR9IlKYd82SteF1QWyu3862Ze9Rv37t49JMxfiqeXdReOuelVKlx+96F+2VWkZMa1uxFzsTCuEkOSoCy8SenB+PXb5Vygw2vd9PXk427gWOF3inyy2LnMBr2CyYayiO95Nlee7vqfNRB9LYgN1tPh0vEGJrhR4HrIh6LgVsFvAxsYV3QyeQymQ6noX93PMiCRGt572oatH6yqnVl6TgDESqophDIRLkbdKu15ipEjJ+6rzXV22tPlqQ60D8uAvgm1RDPZIO9oZTqqmR7R+toHbF8oXJZNMZlVOqzxv/crV+GCmlwuL3RWV7pZoR09ojwAEC3xZbR6FbEFgr8F1svYF/k38mQDHoHUBtoFxqxHRkNvBxgWvELhkpKQKbBL4OnERxLXNbkuf+fgYzBfiOwEWFtLwFQGCrwATgG5Tg728A1gFnCvw4zGw4sUvSxmEzHVvfIHb7PljvZSdfnTul+oVzptaMbRY5EuG+QrvwDIMgaRF5TtJyZuWUmqMrp9VMjXpOKlpXzCZZOaXm1ylMhYg8FvV8WmuuqwvkuOnmJPVrV1G7bMnq5PZt33xbqkeeO6X6hUAGU0qpzvUN+PjFcAfbDw3AX4ERmWUj70c9oaAIrBfb1eQA4Fa6z88Y/F+WBN4yYrKasUt2jhCo8mc60RKoE7gFG+C7h+LLDn5bYKGXHTMBtbd9ng/YNt+jMsVwI5cp5n0UNoitcifADcBIgYckwOB3Jgvmf9ifU0d1Pfu7POQGKJAK9+dNrZlzztTqyxqSjfuIyM9EpORTWkVYISK/aiZ9QOXUmjMrq2o0E0a1ce6U6vcqp9acn06lTxaR16OeD0Bz3XZfj5dONlG/dhVbly5e27Rp4zWbN6wfUTml+o7rq7rPWm+lVEEJOiOmO12kg80Auhc4WOyypQVRT8gvAjMzS5D2Bn6Nbavc3RRaICZrCbaA9BcE3vLheKET2Cb2InM/4AdQtPU1Bbjd476/w3aFCsIKbBeeK6PK3BOYI7bt8fGUcLA6BAuxr+MRAo/4WW9TYKXAL7D/Di8A1nay6e4uD70BAm5f7daE6UvWAb+6azQ3DOl7+ASMc5UxHBP1vPwjH4jwPyPpRyqr5r9O8UW1VQTGT5s3HTj+ibEVZxi4zhhzYlRzSTXU+3Kc5vo6GjdtoLl26/I0cnNTw9Z7JsxY6c/BlVLKuyAuLLOEAkuHD1EKu1znAYHPAd8CTiq2ltdigy0PYS8sg7hTX2yCyCDzqyCdAP8F/iswFvihsQVQfSuqGgSBD7GZL38BNkU8Hb/cLjDe2J9DTjJZdDcFOKfMMNwF/F3gS8A1Bg4MeEwEpmODbM8EPVY3Mw+7vGuAwJnYGi6fNi6DJGJvILyA/d14htwCO8UfiMm6YjZJmPcA8MDEMYccg4mfg+GzRjgSYwr6DbQNkQYxZjrCi2mRF8+tqimoImISS9chjhTVa9qNjZ9a8zzw/MRxh51sxPkumEpMuP+GU40N2Mw/9+fOkk7RtHUzTVs2k25snCbwl8apNRMnFHCnqDAE/u9QWBPIcQtbd3zOyh97BHVgsUX9unu2Xxp4OPMYmgnKfN7Y9s4FeS4i9o78U9g2pS8AwazRLU5BZAF5rRGzK1OBqWJbKf8AuMC4X0oQmEyA7zHgX9jlMqVWX6gZuEDgRWOXduyS2Ho/FxNerZRs5t59ApXA2cAZBvbya4BMYGky8E/gVb+Omwc3/3aF4srI2gQ8mHnEBI7FZrQMwf5MhwB7Zrbdgr1BsgmbWfMOti6R2+xVt4GY9VCgH3qdmXjiIUMpj5+FcJaBEzFmUNRzak1gDSKvi5g3xKRnbpa6V79StUwLLqlAPHzCwcN69Eh8XTCXGsP+YY3bZ5/9ifXomePWaZK122jaupVkXe1HJpX+l5jmf1ROXehpvbBSSgWswUB5EAfOnIgHfre1SO0DnIdtx3ui2XGSHLpM4cd3sRfvE7EXTd36hkEJimOL3p4FnGVsgCZUYpc4VGGDfI/RPZa2xYEfAd/r6N+42CyBO7FLQaIubG6AI7GZFWcCo4yLjEmB1dj3kMmZx7IA5qgKx8UG7s91Y7HvPc8UVSCmvUfHHTbcEeeYmHCMGHOMMXI0GLcRKdcEthhkoQgLDGahwILGpLw54ZWabtMdQBUU88S4kSc4IhdjTCUwLMjBeu65F2X9B3T69+lUM83ba0nWbiNZV7vWpOXxFOlHklPnVXX37BelVEHra7y3ouyS2JabxwZ1/BJzMPZC+STgGOBAE0xrccnUh5gFvJ55zEazXrqbA7DLlo4BDgcONf4uu5LMkqNZ2IyXqdhlFN25RME+2Nd7X2ApdqlfoXfJ7AEMbvfoBWzEZoyszXxdB3S7BjTd3M+MDSDmROBQYGFRB2I6cv9xI/r16pnY1zHsa8Tsi3H2BRmGLcDXC0wv+1V6GmMyt/WlEUy9iDQADQbTIEbqENZgWC1pVjuY1UJyNfVNKypfX6pp76pgPT6m4kiDOcsxnCZwrDHkmr6Sk7IBA+k5aHDLn9OpZlL1dTQ31NNcu01STY1zBHkmLebZ5qqaGRp8UUoViQNN/q1WOyXwHPbOqvJmL2xGUfaRPbfr3e5rD2xaeR02y2B75v9rgZXYi75lma8foBdMqmP7YIMyh2GDBf2wv199Wz36YNdqb8fWttmG/T3biv39WoRd7rCY7pHxolR39ZKBU3PZMNPdqSfQVHKBGKXUDneNJjG43+FHO2JOwJhRAkcAFfkEZ5xEglh5T9LJZDKVbHqfdGq+ILNFmNXUwKwJM2o2+vgUlFIqLMcbmBHUwQUeAC4J6vhKKaWUCl0C2Jxr1qbYGz4HQYEW61VK+SNT+Dqbbp1lHv3kYUMSMYaniQ3HpAeD2c0YBiD0BeIYE0MwIA0Gs11gO5LeAKxOJ5tWNdQ3rKh25i/VNtNKqRISWKHejA0BH18ppZRS4TrG5dLZquz/aCBGqe5Hzp8+fxWwCpgZ9WSUUqpABF0gdn3Ax1dKKaVUuMa43H5y9n/c96BVSimllCo9QXefWxrw8ZVSSikVnhjwVRfbC7ZgN6CBGKWUUkopsJ16grQ44OMrpZRSKjyfN7brWk4EqrHdtQANxCillFJKQfCBmMA6MimllFIqVAb4sct9Jne9iVJKKaVU92GAWgMSxAPQbnJKKaVU6bjAw7nAZ6OetFJKKaVUIRkWVBAmc/L1RtRPUCmllFK+GAFscnkesAbo2fogujRJKaWUUt3dIQEfX5clKaWUUsWvD/CEgd1c7vd7oL71NzQQo5RSSqnu7tiAj6+FepVSSinvDPCJzNeolAP3G6hws5PYAr23BzMlpZRSSqni9XTAS5POjfoJKqWUUkXsuMzn6Wzg0xGMvx8wy+M5wP9FMF+llFJKqYLmAJsDDsQMjvpJKqWUUkXs9+0+V6cBZwCxEMY+G9jo8fN/LdA7hDkqpZRSShWVowIOwmh9GKWUUio/Szv5jP0I+AMwyufxDDYAMy3Pc4Bv+TwvpZRSSqmScFXAgZh/Rv0ElVJKqSI2OsfP2xrgDuDLwKG4ryeTwNaMuxqY78Pn/z27Gizu+mVQSimllCodnw/4+K8FfHyllFKqlH0ul40MHI59XAkgsBlbU2YVsBHYkPm6CbsseUDmMRAYia1D08uPCQu8CHzDj2MppZRSSpWaQ4LMhsncERsZ9ZNUSimlitjioD+rff7cfxfo19WT0vbVSimllOquvhjkwcXedZsX5BhKKaVUCfuYgRFRTyJXAiuAs4CtXW2rgRillFJKdUdx4NKAx5gEpAMeQymllCpVOS1LKgQCjwFHAh9EPRellFJKqUJ1ZQjpyWdG/SSVUkqpIjY76qVGOXzW1wKXR/1CKaWUUkoVuj7A6oBPzDZgOzAopZRSypvTgHeiDrbs4rN+FnBQxK+RUkoppVRR+EUIJ2e7bFuplFJKqZw42Jpuy6IOvLT6jF8EfB+94aKUUkoplZOjgPoQTtJOi/qJKqWUUiXEAU4HHgTqIgi+JIFHgFMBE+HroJRSSilVVHYDloRwsrYGiEX8XJVSSqlS1Q+4ELgVuzyoKaDP80bgDeBaYIifT0AjOUoppZTqDhzgMQOVQQ8kcB3w66DHUUoppRQAPYHRwAnA8cBhwEBggMlx+ZDYoMsibGDnzczXuUBTEBPWQIxSSimlSl1f4AEDZwc9kMA2YF9gc9BjKaWUUqpL/YDdM4+B2IL9ddjP6S2Zr5uBhqgmqJRSSilVavYH3g1xDfkNUT9hpZRSSimllFJKqSicAqwLMQhTDwyO+DkrpZRSSimllFJKhcoA3yCg4n27CMTcFvHzVkoppZRSSimllApNDLgIqA4zAJMJwmwF9o726SullFJKKaWUUkoFLwFcDiwOOwDTKhDzzYhfA6WUUkoppZRSSqlA7Qt8D/ggqgBMJggzHe1EqZRSSqkc6UmDUkoppYpFb2AMcDpwuoFDo50OCDQCHwMWRj0XpZRSShWHeNQTUEoppZTqwEBs6+kDgIOBccCJBsoindXOfoEGYZRSSinlgmbEKKWUUipqPYBfsyPwcoCBftFOqWsC04BPAc1Rz4FHfRMAAAIYSURBVEUppZRSxUMDMUoppZSKWhlQb8CJeiK5ElgEnABsjHouSimllCouRXPCo5RSSqmS1QR8GPUkciWwATgLDcIopZRSygMNxCillFKqECyNegK5yBTnHQ8siXouSimllCpOGohRSimlVCEo+ECMQBq4DHgl6rkopZRSqnhp1ySllFJKFYL3o57ArgjUAxcDj0c9F6WUUkoVNw3EKKWUUqoQFGxGjMAa4BzgjajnopRSSqnip4EYpZRSShWCggzECMwHPgMsi3gqSimllFJKKaWUUr4ZakAK6QH8B9gt6hdGKaWUUkoppZRSym8GqI86+JIJwHyE7YyklFJKKaWUUkopVbLmF0AQ5u9oFoxSSimllFJKKaW6gWciDMC8AZwa9QuglFJKqdLnRD0BpZRSSqmM0Av2CswSOAs4Fpgc9vhKKaWU6n60a5JSSimlCsX7YQ0k8DrwK+DpsMZUSimllAINxCillFKqcASaESOwAXgAWwdmTpBjKaWUUkoppZRSShW6owKo/dIIPANcAJRF+/SUUkoppZRSSimlCkd/n4Ivy4E7gUqgT7RPSSmllFKqLRP1BJRSSimlWtloYECuGwskgRrgTWA28DIwL6C5KaWUUkrlTWvEKKWUUqqQvA+Mbv0NscuLPsJmunyQ+boMeBeYi/17pZRSSqmioBkxSimllCokw4EEsB2oy3xtjnRGSimllFI++v83U69dOzmQPQAAAABJRU5ErkJggg==;imageBackground=light-dark(#000000,#FFFFFF);" vertex="1" parent="1">
          <mxGeometry x="640" y="411.47" width="171.12" height="37.06" as="geometry" />
        </mxCell>
        <mxCell id="RTKI8pNvzQjoVQ499vID-21" value="" style="endArrow=classic;html=1;rounded=0;entryX=1;entryY=0.5;entryDx=0;entryDy=0;exitX=-0.023;exitY=0.515;exitDx=0;exitDy=0;exitPerimeter=0;" edge="1" parent="1" source="RTKI8pNvzQjoVQ499vID-20" target="RTKI8pNvzQjoVQ499vID-6">
          <mxGeometry width="50" height="50" relative="1" as="geometry">
            <mxPoint x="530" y="330" as="sourcePoint" />
            <mxPoint x="530" y="427" as="targetPoint" />
          </mxGeometry>
        </mxCell>
        <mxCell id="RTKI8pNvzQjoVQ499vID-29" value="TSR Documents" style="rounded=1;whiteSpace=wrap;html=1;fillColor=#D16163;" vertex="1" parent="1">
          <mxGeometry x="190" y="790" width="120" height="60" as="geometry" />
        </mxCell>
      </root>
    </mxGraphModel>
  </diagram>
</mxfile>
